<?xml version="1.0" encoding="utf-8"?>
<!-- Generator: Adobe Illustrator 22.0.1, SVG Export Plug-In . SVG Version: 6.00 Build 0)  -->
<svg version="1.1" id="레이어_1" xmlns="http://www.w3.org/2000/svg" xmlns:xlink="http://www.w3.org/1999/xlink" x="0px"
	 y="0px" viewBox="0 0 800 533" style="enable-background:new 0 0 800 533;" xml:space="preserve">
<style type="text/css">
	.st0{fill:#E30A17;}
	.st1{fill:#FFFFFF;}
</style>
<g>
	<rect class="st0" width="800" height="533"/>
	<path class="st1" d="M494,212c0,0-25,21-76,17s-95-29-132,1c-17,0-43,5-53,12s-26,1-46,19s-54,62-64,67s-10,9-7,11s27-8,27-8
		s-4.5,7.5,1.5,6.5s24-11,29-20c0,0-1,10-5,16s-4,8,0,7s33-32,38-49c1-7-1,14,4,13s9-9,9-9s-3,12,1,10s16-22,20-34s20-24,31-24
		c0,0-13,22-3,45s19,35,13,50s-22,24-27,31s-9,5-9,14s5,20,4,31s1,19-2,25s3,10,6,13s10,16,9,21s1,7,4,9s5,6,5,6h23c0,0,1-3-1-7
		s-20-21-20-26s3-11-8-24c-4-8-2-42,3-46s40-10,55-28c4-6,37-16,44-25c0,0-10,17-34,22c-11,1-9,7-8,10s2,14-3,24s-9,10-1,18
		s16,18,19,28s10,18,12,20s14,6,15,12s2,16,4,17s24,3,24,3s-1-7-5-13s-18-19-19-24s-6-15-11-17s-19-24-20-31s12-23,24-31
		s19-30,20-35s7-25,16-26s80,30,108,9c0,0,9,7,9,20s2,21,5,26s-6,12-4,18s8,34,7,43s-8,15-6,23s11,15,12,21s5,17,5,17h26
		c0,0-4-13-10-19s-11-11-11-20s-1-16-2-19s2-29,4-31s7-15,4-28s10-25,11-39c0,0-2-1-7-1s-33,4-42-26c0,0,10,23,35,23s54-4,65-2
		s19,0,18,7s-9,31-14,37s-9,13-10,21s-19,1-22,11s0,28,6,26s21-14,25-21s17-15,19-23s5-27,11-38s11-12,11-22s-7-16-14-15
		s-54-15-62-14s-14-2-14-7c1-3,1-2,2,0s8,8,16,4s11-23,11-29s-10-30-6-43s4-38,5-45s0-16,8-13s19,9,33,8c3-1,16,13,23,14s14-1,15-8
		s5-9,2-16s-29-25-30-31s-9-17-13-19s0-14,4-17s5-8,1-8s-16,10-19,9s8-10,7-16s-21,6-26,12s-13,7-22,7s-24,1-31,7s-18,6-23,6
		s-11,0-9,4s15,8,21,9s-13,7-14,10s7,3,8,5s-18,6-24,4s-5,3-2,6s9,5,15,5s-12,6-17,5s-13,4,12,9c0,0,1,3-3,4s-8,7,2,7c0,0-5,4-9,4
		s-8,2-3,5s9,3,13,2s-2,3-9,4s-11,3-9,6s9,2,9,2s-4,2-8,2S486.5,208.5,494,212z"/>
	<path class="st1" d="M205.5,186L164.5,81c-0.4-1.1-1.7-2-2.8-2h-0.5h-12.5h-0.5c-1.1,0-2.4,0.9-2.8,2l-40.9,105
		c-0.4,1.1,0.1,2,1.2,2h13c1.1,0,2.4-0.9,2.8-2l7.8-20h51.3l7.8,20c0.4,1.1,1.7,2,2.8,2h13C205.3,188,205.9,187.1,205.5,186z
		 M136,149l19-48.8l19,48.8H136z"/>
	<path class="st1" d="M312,79h-4h-3h-65h-10h-3c-1.1,0-2,0.9-2,2v105c0,1.1,0.9,2,2,2h13c1.1,0,2-0.9,2-2v-33h63h3h4
		c9,0,10-10.6,10-10.6V116V89.6C322,89.6,321,79,312,79z M305,136h-63V96h63v20V136z"/>
</g>
</svg>
