<?xml version="1.0" encoding="UTF-8"?>
<svg xmlns="http://www.w3.org/2000/svg" xmlns:xlink="http://www.w3.org/1999/xlink" width="300pt" height="300pt" viewBox="0 0 300 300" version="1.1">
<defs>
<linearGradient id="linear0" gradientUnits="userSpaceOnUse" x1="176.6001" y1="665.2805" x2="275.7001" y2="665.2805" gradientTransform="matrix(0.849137,0,0,-0.849137,0,710.838239)">
<stop offset="0" style="stop-color:rgb(71.764706%,58.039216%,9.411765%);stop-opacity:1;"/>
<stop offset="0.5664" style="stop-color:rgb(86.666667%,72.54902%,2.745098%);stop-opacity:1;"/>
<stop offset="1" style="stop-color:rgb(86.666667%,72.54902%,2.745098%);stop-opacity:1;"/>
</linearGradient>
<linearGradient id="linear1" gradientUnits="userSpaceOnUse" x1="176.6001" y1="655.6305" x2="275.7001" y2="655.6305" gradientTransform="matrix(0.849137,0,0,-0.849137,0,710.838239)">
<stop offset="0" style="stop-color:rgb(63.529412%,50.980392%,11.764706%);stop-opacity:1;"/>
<stop offset="0.6172" style="stop-color:rgb(78.823529%,63.529412%,5.490196%);stop-opacity:1;"/>
<stop offset="1" style="stop-color:rgb(78.823529%,63.529412%,5.490196%);stop-opacity:1;"/>
</linearGradient>
<linearGradient id="linear2" gradientUnits="userSpaceOnUse" x1="176.6001" y1="625.4305" x2="246.7001" y2="625.4305" gradientTransform="matrix(0.849137,0,0,-0.849137,0,710.838239)">
<stop offset="0" style="stop-color:rgb(71.764706%,58.039216%,9.411765%);stop-opacity:1;"/>
<stop offset="0.5469" style="stop-color:rgb(86.666667%,72.54902%,2.745098%);stop-opacity:1;"/>
<stop offset="1" style="stop-color:rgb(86.666667%,72.54902%,2.745098%);stop-opacity:1;"/>
</linearGradient>
<linearGradient id="linear3" gradientUnits="userSpaceOnUse" x1="176.6001" y1="695.4805" x2="246.7001" y2="695.4805" gradientTransform="matrix(0.849137,0,0,-0.849137,0,710.838239)">
<stop offset="0" style="stop-color:rgb(71.764706%,58.039216%,9.411765%);stop-opacity:1;"/>
<stop offset="0.4727" style="stop-color:rgb(90.980392%,79.215686%,15.686275%);stop-opacity:1;"/>
<stop offset="1" style="stop-color:rgb(90.980392%,79.215686%,15.686275%);stop-opacity:1;"/>
</linearGradient>
<linearGradient id="linear4" gradientUnits="userSpaceOnUse" x1="176.6001" y1="695.4805" x2="246.7001" y2="695.4805" gradientTransform="matrix(0.849137,0,0,-0.849137,0,710.838239)">
<stop offset="0" style="stop-color:rgb(63.529412%,50.980392%,11.764706%);stop-opacity:1;"/>
<stop offset="0.6641" style="stop-color:rgb(71.764706%,58.039216%,9.411765%);stop-opacity:1;"/>
<stop offset="1" style="stop-color:rgb(71.764706%,58.039216%,9.411765%);stop-opacity:1;"/>
</linearGradient>
<linearGradient id="linear5" gradientUnits="userSpaceOnUse" x1="176.6001" y1="623.8305" x2="206.9364" y2="623.8305" gradientTransform="matrix(0.849137,0,0,-0.849137,0,710.838239)">
<stop offset="0" style="stop-color:rgb(71.764706%,58.039216%,9.411765%);stop-opacity:1;"/>
<stop offset="0.3672" style="stop-color:rgb(79.215686%,63.921569%,5.490196%);stop-opacity:1;"/>
<stop offset="1" style="stop-color:rgb(79.215686%,63.921569%,5.490196%);stop-opacity:1;"/>
</linearGradient>
<linearGradient id="linear6" gradientUnits="userSpaceOnUse" x1="176.6001" y1="675.6305" x2="249.9001" y2="675.6305" gradientTransform="matrix(0.849137,0,0,-0.849137,0,710.838239)">
<stop offset="0" style="stop-color:rgb(71.764706%,58.039216%,9.411765%);stop-opacity:1;"/>
<stop offset="0.543" style="stop-color:rgb(90.980392%,79.215686%,15.686275%);stop-opacity:1;"/>
<stop offset="1" style="stop-color:rgb(90.980392%,79.215686%,15.686275%);stop-opacity:1;"/>
</linearGradient>
<linearGradient id="linear7" gradientUnits="userSpaceOnUse" x1="176.6001" y1="675.6305" x2="249.9001" y2="675.6305" gradientTransform="matrix(0.849137,0,0,-0.849137,0,710.838239)">
<stop offset="0" style="stop-color:rgb(63.529412%,50.980392%,11.764706%);stop-opacity:1;"/>
<stop offset="0.9961" style="stop-color:rgb(78.823529%,63.529412%,5.490196%);stop-opacity:1;"/>
<stop offset="1" style="stop-color:rgb(78.823529%,63.529412%,5.490196%);stop-opacity:1;"/>
</linearGradient>
<linearGradient id="linear8" gradientUnits="userSpaceOnUse" x1="176.6001" y1="645.2805" x2="249.9001" y2="645.2805" gradientTransform="matrix(0.849137,0,0,-0.849137,0,710.838239)">
<stop offset="0" style="stop-color:rgb(71.764706%,58.039216%,9.411765%);stop-opacity:1;"/>
<stop offset="1" style="stop-color:rgb(86.666667%,72.54902%,2.745098%);stop-opacity:1;"/>
</linearGradient>
<linearGradient id="linear9" gradientUnits="userSpaceOnUse" x1="176.6001" y1="697.0805" x2="206.9364" y2="697.0805" gradientTransform="matrix(0.849137,0,0,-0.849137,0,710.838239)">
<stop offset="0" style="stop-color:rgb(78.823529%,63.529412%,5.490196%);stop-opacity:1;"/>
<stop offset="0.3398" style="stop-color:rgb(90.980392%,79.215686%,15.686275%);stop-opacity:1;"/>
<stop offset="1" style="stop-color:rgb(90.980392%,79.215686%,15.686275%);stop-opacity:1;"/>
</linearGradient>
</defs>
<g id="surface1">
<path style=" stroke:none;fill-rule:nonzero;fill:rgb(88.235294%,12.941176%,15.294118%);fill-opacity:1;" d="M 300 150.042969 C 300 232.917969 232.832031 300 149.957031 300 C 67.082031 300 0 232.832031 0 149.957031 C 0 67.167969 67.167969 0 149.957031 0 C 232.832031 0 299.914062 67.167969 300 150.042969 C 299.914062 149.957031 299.914062 149.957031 300 150.042969 "/>
<path style=" stroke:none;fill-rule:evenodd;fill:rgb(63.529412%,50.980392%,11.764706%);fill-opacity:1;" d="M 281.402344 140.109375 L 269.769531 143.929688 L 262.554688 133.992188 L 262.554688 146.222656 L 250.917969 150.042969 L 262.554688 153.777344 L 262.554688 166.007812 L 269.769531 156.15625 L 281.402344 159.890625 L 274.1875 150.042969 Z M 281.402344 140.109375 "/>
<path style=" stroke:none;fill-rule:evenodd;fill:rgb(63.529412%,50.980392%,11.764706%);fill-opacity:1;" d="M 30.230469 156.15625 L 37.363281 166.007812 L 37.363281 153.777344 L 48.996094 150.042969 L 37.363281 146.222656 L 37.363281 133.992188 L 30.230469 143.929688 L 18.597656 140.109375 L 25.730469 150.042969 L 18.597656 159.890625 Z M 30.230469 156.15625 "/>
<path style=" stroke:none;fill-rule:evenodd;fill:rgb(63.529412%,50.980392%,11.764706%);fill-opacity:1;" d="M 146.222656 37.445312 L 149.957031 49.082031 L 153.777344 37.445312 L 166.007812 37.445312 L 156.070312 30.230469 L 159.890625 18.597656 L 149.957031 25.8125 L 140.109375 18.597656 L 143.84375 30.230469 L 133.992188 37.445312 Z M 146.222656 37.445312 "/>
<path style=" stroke:none;fill-rule:evenodd;fill:rgb(63.529412%,50.980392%,11.764706%);fill-opacity:1;" d="M 153.777344 262.554688 L 149.957031 251.003906 L 146.222656 262.554688 L 133.992188 262.554688 L 143.84375 269.769531 L 140.109375 281.402344 L 149.957031 274.1875 L 159.890625 281.402344 L 156.070312 269.769531 L 166.007812 262.554688 Z M 153.777344 262.554688 "/>
<path style=" stroke:none;fill-rule:evenodd;fill:rgb(63.529412%,50.980392%,11.764706%);fill-opacity:1;" d="M 221.371094 78.628906 L 232.238281 73.109375 L 240.898438 81.6875 L 239.03125 69.628906 L 249.902344 64.109375 L 237.84375 62.15625 L 235.890625 50.097656 L 230.371094 60.96875 L 218.226562 59.101562 L 226.890625 67.761719 Z M 221.371094 78.628906 "/>
<path style=" stroke:none;fill-rule:evenodd;fill:rgb(63.529412%,50.980392%,11.764706%);fill-opacity:1;" d="M 78.546875 221.371094 L 67.675781 226.972656 L 59.015625 218.3125 L 60.96875 230.371094 L 50.015625 235.890625 L 62.15625 237.84375 L 64.023438 249.902344 L 69.628906 239.03125 L 81.6875 240.898438 L 73.027344 232.324219 Z M 78.546875 221.371094 "/>
<path style=" stroke:none;fill-rule:evenodd;fill:rgb(63.529412%,50.980392%,11.764706%);fill-opacity:1;" d="M 59.015625 81.6875 L 67.675781 73.109375 L 78.628906 78.628906 L 73.027344 67.761719 L 81.6875 59.101562 L 69.628906 60.96875 L 64.023438 50.097656 L 62.15625 62.15625 L 50.097656 64.109375 L 60.96875 69.628906 Z M 59.015625 81.6875 "/>
<path style=" stroke:none;fill-rule:evenodd;fill:rgb(63.529412%,50.980392%,11.764706%);fill-opacity:1;" d="M 240.898438 218.3125 L 232.238281 226.972656 L 221.371094 221.371094 L 226.890625 232.324219 L 218.226562 240.898438 L 230.371094 239.03125 L 235.890625 249.902344 L 237.84375 237.84375 L 249.902344 235.976562 L 238.945312 230.371094 Z M 240.898438 218.3125 "/>
<path style=" stroke:none;fill-rule:evenodd;fill:rgb(63.529412%,50.980392%,11.764706%);fill-opacity:1;" d="M 252.535156 103.425781 L 243.277344 111.40625 L 255.421875 110.386719 L 260.089844 121.765625 L 262.976562 109.792969 L 275.121094 108.859375 L 264.761719 102.492188 L 267.5625 90.601562 L 258.308594 98.5 L 247.863281 92.132812 Z M 252.535156 103.425781 "/>
<path style=" stroke:none;fill-rule:evenodd;fill:rgb(63.529412%,50.980392%,11.764706%);fill-opacity:1;" d="M 47.382812 196.574219 L 56.722656 188.59375 L 44.496094 189.613281 L 39.824219 178.320312 L 37.023438 190.207031 L 24.792969 191.140625 L 35.238281 197.507812 L 32.351562 209.398438 L 41.691406 201.5 L 52.050781 207.867188 Z M 47.382812 196.574219 "/>
<path style=" stroke:none;fill-rule:evenodd;fill:rgb(63.529412%,50.980392%,11.764706%);fill-opacity:1;" d="M 92.132812 52.136719 L 103.425781 47.464844 L 111.320312 56.722656 L 110.386719 44.578125 L 121.679688 39.910156 L 109.792969 37.023438 L 108.859375 24.792969 L 102.40625 35.238281 L 90.519531 32.4375 L 98.5 41.691406 Z M 92.132812 52.136719 "/>
<path style=" stroke:none;fill-rule:evenodd;fill:rgb(63.529412%,50.980392%,11.764706%);fill-opacity:1;" d="M 207.867188 247.863281 L 196.574219 252.617188 L 188.59375 243.277344 L 189.527344 255.503906 L 178.234375 260.175781 L 190.121094 262.976562 L 191.140625 275.207031 L 197.507812 264.761719 L 209.398438 267.648438 L 201.414062 258.308594 Z M 207.867188 247.863281 "/>
<path style=" stroke:none;fill-rule:evenodd;fill:rgb(63.529412%,50.980392%,11.764706%);fill-opacity:1;" d="M 188.59375 56.722656 L 196.574219 47.464844 L 207.867188 52.136719 L 201.5 41.691406 L 209.398438 32.4375 L 197.507812 35.238281 L 191.140625 24.792969 L 190.207031 37.023438 L 178.234375 39.910156 L 189.527344 44.578125 Z M 188.59375 56.722656 "/>
<path style=" stroke:none;fill-rule:evenodd;fill:rgb(63.529412%,50.980392%,11.764706%);fill-opacity:1;" d="M 111.320312 243.277344 L 103.425781 252.617188 L 92.132812 247.863281 L 98.5 258.308594 L 90.519531 267.648438 L 102.40625 264.761719 L 108.859375 275.207031 L 109.792969 262.976562 L 121.679688 260.175781 L 110.386719 255.421875 Z M 111.320312 243.277344 "/>
<path style=" stroke:none;fill-rule:evenodd;fill:rgb(63.529412%,50.980392%,11.764706%);fill-opacity:1;" d="M 37.023438 109.792969 L 39.824219 121.679688 L 44.496094 110.386719 L 56.722656 111.40625 L 47.382812 103.425781 L 52.050781 92.132812 L 41.691406 98.5 L 32.351562 90.601562 L 35.238281 102.492188 L 24.792969 108.859375 Z M 37.023438 109.792969 "/>
<path style=" stroke:none;fill-rule:evenodd;fill:rgb(63.529412%,50.980392%,11.764706%);fill-opacity:1;" d="M 262.976562 190.207031 L 260.089844 178.320312 L 255.421875 189.613281 L 243.191406 188.679688 L 252.535156 196.574219 L 247.863281 207.867188 L 258.308594 201.5 L 267.5625 209.480469 L 264.761719 197.507812 L 275.121094 191.140625 Z M 262.976562 190.207031 "/>
<path style=" stroke:none;fill-rule:evenodd;fill:rgb(63.529412%,50.980392%,11.764706%);fill-opacity:1;" d="M 149.957031 65.894531 L 141.722656 108.691406 L 124.230469 87.800781 L 126.605469 115.058594 L 90.433594 90.519531 L 114.972656 126.605469 L 149.957031 150.042969 L 158.195312 108.773438 Z M 149.957031 65.894531 "/>
<path style=" stroke:none;fill-rule:evenodd;fill:rgb(63.529412%,50.980392%,11.764706%);fill-opacity:1;" d="M 209.480469 90.519531 L 173.308594 115.058594 L 175.769531 87.800781 L 158.195312 108.773438 L 149.957031 150.042969 L 184.941406 126.605469 Z M 209.480469 90.519531 "/>
<path style=" stroke:none;fill-rule:evenodd;fill:rgb(63.529412%,50.980392%,11.764706%);fill-opacity:1;" d="M 87.800781 124.230469 L 108.691406 141.804688 L 65.808594 150.042969 L 108.691406 158.195312 L 87.800781 175.769531 L 114.972656 173.394531 L 149.957031 150.042969 L 114.972656 126.605469 Z M 87.800781 124.230469 "/>
<path style=" stroke:none;fill-rule:evenodd;fill:rgb(63.529412%,50.980392%,11.764706%);fill-opacity:1;" d="M 191.226562 158.195312 L 234.105469 150.042969 L 191.226562 141.804688 L 212.199219 124.230469 L 184.941406 126.605469 L 149.957031 150.042969 L 114.972656 173.394531 L 90.433594 209.480469 L 126.605469 185.027344 L 124.230469 212.199219 L 141.722656 191.308594 L 149.957031 234.191406 L 158.195312 191.308594 L 175.769531 212.199219 L 173.308594 185.027344 L 209.480469 209.480469 L 184.941406 173.394531 L 212.199219 175.769531 Z M 191.226562 158.195312 "/>
<path style=" stroke:none;fill-rule:evenodd;fill:rgb(90.980392%,79.215686%,15.686275%);fill-opacity:1;" d="M 262.554688 153.777344 L 267.816406 149.957031 L 262.554688 166.007812 Z M 262.554688 153.777344 "/>
<path style=" stroke:none;fill-rule:evenodd;fill:rgb(63.529412%,50.980392%,11.764706%);fill-opacity:1;" d="M 269.769531 156.15625 L 267.816406 149.957031 L 262.554688 166.007812 Z M 269.769531 156.15625 "/>
<path style=" stroke:none;fill-rule:evenodd;fill:rgb(78.823529%,63.529412%,5.490196%);fill-opacity:1;" d="M 281.402344 159.890625 L 267.816406 149.957031 L 269.769531 156.15625 Z M 281.402344 159.890625 "/>
<path style=" stroke:none;fill-rule:evenodd;fill:rgb(71.764706%,58.039216%,9.411765%);fill-opacity:1;" d="M 274.1875 150.042969 L 267.816406 149.957031 L 281.402344 159.890625 Z M 274.1875 150.042969 "/>
<path style=" stroke:none;fill-rule:evenodd;fill:rgb(63.529412%,50.980392%,11.764706%);fill-opacity:1;" d="M 281.402344 140.109375 L 267.816406 149.957031 L 274.1875 150.042969 Z M 281.402344 140.109375 "/>
<path style=" stroke:none;fill-rule:evenodd;fill:rgb(90.980392%,79.215686%,15.686275%);fill-opacity:1;" d="M 269.769531 143.929688 L 267.816406 149.957031 L 281.402344 140.109375 Z M 269.769531 143.929688 "/>
<path style=" stroke:none;fill-rule:evenodd;fill:rgb(71.764706%,58.039216%,9.411765%);fill-opacity:1;" d="M 269.769531 143.929688 L 267.816406 149.957031 L 262.554688 133.992188 Z M 269.769531 143.929688 "/>
<path style=" stroke:none;fill-rule:evenodd;fill:rgb(90.980392%,79.215686%,15.686275%);fill-opacity:1;" d="M 262.554688 133.992188 L 267.816406 149.957031 L 262.554688 146.222656 Z M 262.554688 133.992188 "/>
<path style=" stroke:none;fill-rule:evenodd;fill:rgb(86.666667%,72.54902%,2.745098%);fill-opacity:1;" d="M 262.554688 146.222656 L 267.816406 149.957031 L 250.917969 150.042969 Z M 262.554688 146.222656 "/>
<path style=" stroke:none;fill-rule:evenodd;fill:rgb(71.764706%,58.039216%,9.411765%);fill-opacity:1;" d="M 250.917969 150.042969 L 267.816406 149.957031 L 262.554688 153.777344 Z M 250.917969 150.042969 "/>
<path style=" stroke:none;fill-rule:evenodd;fill:rgb(63.529412%,50.980392%,11.764706%);fill-opacity:1;" d="M 37.363281 146.222656 L 32.183594 150.042969 L 37.363281 133.992188 Z M 37.363281 146.222656 "/>
<path style=" stroke:none;fill-rule:evenodd;fill:rgb(90.980392%,79.215686%,15.686275%);fill-opacity:1;" d="M 30.230469 143.929688 L 32.183594 150.042969 L 37.363281 133.992188 Z M 30.230469 143.929688 "/>
<path style=" stroke:none;fill-rule:evenodd;fill:rgb(86.666667%,72.54902%,2.745098%);fill-opacity:1;" d="M 18.597656 140.109375 L 32.183594 150.042969 L 30.230469 143.929688 Z M 18.597656 140.109375 "/>
<path style=" stroke:none;fill-rule:evenodd;fill:rgb(78.823529%,63.529412%,5.490196%);fill-opacity:1;" d="M 25.730469 150.042969 L 32.183594 150.042969 L 18.597656 140.109375 Z M 25.730469 150.042969 "/>
<path style=" stroke:none;fill-rule:evenodd;fill:rgb(90.980392%,79.215686%,15.686275%);fill-opacity:1;" d="M 18.597656 159.890625 L 32.183594 150.042969 L 25.730469 150.042969 Z M 18.597656 159.890625 "/>
<path style=" stroke:none;fill-rule:evenodd;fill:rgb(63.529412%,50.980392%,11.764706%);fill-opacity:1;" d="M 30.230469 156.15625 L 32.183594 150.042969 L 18.597656 159.890625 Z M 30.230469 156.15625 "/>
<path style=" stroke:none;fill-rule:evenodd;fill:rgb(78.823529%,63.529412%,5.490196%);fill-opacity:1;" d="M 30.230469 156.15625 L 32.183594 150.042969 L 37.363281 166.007812 Z M 30.230469 156.15625 "/>
<path style=" stroke:none;fill-rule:evenodd;fill:rgb(86.666667%,72.54902%,2.745098%);fill-opacity:1;" d="M 37.363281 166.007812 L 32.183594 150.042969 L 37.363281 153.777344 Z M 37.363281 166.007812 "/>
<path style=" stroke:none;fill-rule:evenodd;fill:rgb(71.764706%,58.039216%,9.411765%);fill-opacity:1;" d="M 37.363281 153.777344 L 32.183594 150.042969 L 48.996094 150.042969 Z M 37.363281 153.777344 "/>
<path style=" stroke:none;fill-rule:evenodd;fill:rgb(78.823529%,63.529412%,5.490196%);fill-opacity:1;" d="M 48.996094 150.042969 L 32.183594 150.042969 L 37.363281 146.222656 Z M 48.996094 150.042969 "/>
<path style=" stroke:none;fill-rule:evenodd;fill:rgb(71.764706%,58.039216%,9.411765%);fill-opacity:1;" d="M 153.777344 37.445312 L 149.957031 32.183594 L 166.007812 37.445312 Z M 153.777344 37.445312 "/>
<path style=" stroke:none;fill-rule:evenodd;fill:rgb(78.823529%,63.529412%,5.490196%);fill-opacity:1;" d="M 156.070312 30.230469 L 149.957031 32.183594 L 166.007812 37.445312 Z M 156.070312 30.230469 "/>
<path style=" stroke:none;fill-rule:evenodd;fill:rgb(63.529412%,50.980392%,11.764706%);fill-opacity:1;" d="M 159.890625 18.597656 L 149.957031 32.183594 L 156.070312 30.230469 Z M 159.890625 18.597656 "/>
<path style=" stroke:none;fill-rule:evenodd;fill:rgb(90.980392%,79.215686%,15.686275%);fill-opacity:1;" d="M 149.957031 25.8125 L 149.957031 32.183594 L 159.890625 18.597656 Z M 149.957031 25.8125 "/>
<path style=" stroke:none;fill-rule:evenodd;fill:rgb(78.823529%,63.529412%,5.490196%);fill-opacity:1;" d="M 140.109375 18.597656 L 149.957031 32.183594 L 149.957031 25.8125 Z M 140.109375 18.597656 "/>
<path style=" stroke:none;fill-rule:evenodd;fill:rgb(90.980392%,79.215686%,15.686275%);fill-opacity:1;" d="M 143.84375 30.230469 L 149.957031 32.183594 L 140.109375 18.597656 Z M 143.84375 30.230469 "/>
<path style=" stroke:none;fill-rule:evenodd;fill:rgb(86.666667%,72.54902%,2.745098%);fill-opacity:1;" d="M 143.84375 30.230469 L 149.957031 32.183594 L 133.992188 37.445312 Z M 143.84375 30.230469 "/>
<path style=" stroke:none;fill-rule:evenodd;fill:rgb(71.764706%,58.039216%,9.411765%);fill-opacity:1;" d="M 133.992188 37.445312 L 149.957031 32.183594 L 146.222656 37.445312 Z M 133.992188 37.445312 "/>
<path style=" stroke:none;fill-rule:evenodd;fill:rgb(78.823529%,63.529412%,5.490196%);fill-opacity:1;" d="M 146.222656 37.445312 L 149.957031 32.183594 L 149.957031 49.082031 Z M 146.222656 37.445312 "/>
<path style=" stroke:none;fill-rule:evenodd;fill:rgb(63.529412%,50.980392%,11.764706%);fill-opacity:1;" d="M 149.957031 49.082031 L 149.957031 32.183594 L 153.777344 37.445312 Z M 149.957031 49.082031 "/>
<path style=" stroke:none;fill-rule:evenodd;fill:rgb(78.823529%,63.529412%,5.490196%);fill-opacity:1;" d="M 146.222656 262.554688 L 149.957031 267.816406 L 133.992188 262.554688 Z M 146.222656 262.554688 "/>
<path style=" stroke:none;fill-rule:evenodd;fill:rgb(86.666667%,72.54902%,2.745098%);fill-opacity:1;" d="M 143.84375 269.769531 L 149.957031 267.816406 L 133.992188 262.554688 Z M 143.84375 269.769531 "/>
<path style=" stroke:none;fill-rule:evenodd;fill:rgb(78.431373%,63.137255%,6.666667%);fill-opacity:1;" d="M 140.109375 281.402344 L 149.957031 267.816406 L 143.84375 269.769531 Z M 140.109375 281.402344 "/>
<path style=" stroke:none;fill-rule:evenodd;fill:rgb(63.529412%,50.980392%,11.764706%);fill-opacity:1;" d="M 149.957031 274.1875 L 149.957031 267.816406 L 140.109375 281.402344 Z M 149.957031 274.1875 "/>
<path style=" stroke:none;fill-rule:evenodd;fill:rgb(78.823529%,63.529412%,5.490196%);fill-opacity:1;" d="M 159.890625 281.402344 L 149.957031 267.816406 L 149.957031 274.1875 Z M 159.890625 281.402344 "/>
<path style=" stroke:none;fill-rule:evenodd;fill:rgb(71.764706%,58.039216%,9.411765%);fill-opacity:1;" d="M 156.070312 269.769531 L 149.957031 267.816406 L 159.890625 281.402344 Z M 156.070312 269.769531 "/>
<path style=" stroke:none;fill-rule:evenodd;fill:rgb(63.529412%,50.980392%,11.764706%);fill-opacity:1;" d="M 156.070312 269.769531 L 149.957031 267.816406 L 166.007812 262.554688 Z M 156.070312 269.769531 "/>
<path style=" stroke:none;fill-rule:evenodd;fill:rgb(86.666667%,72.54902%,2.745098%);fill-opacity:1;" d="M 166.007812 262.554688 L 149.957031 267.816406 L 153.777344 262.554688 Z M 166.007812 262.554688 "/>
<path style=" stroke:none;fill-rule:evenodd;fill:rgb(63.529412%,50.980392%,11.764706%);fill-opacity:1;" d="M 153.777344 262.554688 L 149.957031 267.816406 L 149.957031 251.003906 Z M 153.777344 262.554688 "/>
<path style=" stroke:none;fill-rule:evenodd;fill:rgb(90.980392%,79.215686%,15.686275%);fill-opacity:1;" d="M 149.957031 251.003906 L 149.957031 267.816406 L 146.222656 262.554688 Z M 149.957031 251.003906 "/>
<path style=" stroke:none;fill-rule:evenodd;fill:rgb(78.823529%,63.529412%,5.490196%);fill-opacity:1;" d="M 232.238281 73.109375 L 233.257812 66.65625 L 240.898438 81.6875 Z M 232.238281 73.109375 "/>
<path style=" stroke:none;fill-rule:evenodd;fill:rgb(71.764706%,58.039216%,9.411765%);fill-opacity:1;" d="M 239.03125 69.628906 L 233.257812 66.65625 L 240.898438 81.6875 Z M 239.03125 69.628906 "/>
<path style=" stroke:none;fill-rule:evenodd;fill:rgb(78.823529%,63.529412%,5.490196%);fill-opacity:1;" d="M 249.902344 64.109375 L 233.257812 66.65625 L 239.03125 69.628906 Z M 249.902344 64.109375 "/>
<path style=" stroke:none;fill-rule:evenodd;fill:rgb(86.666667%,72.54902%,2.745098%);fill-opacity:1;" d="M 237.84375 62.15625 L 233.257812 66.65625 L 249.902344 64.109375 Z M 237.84375 62.15625 "/>
<path style=" stroke:none;fill-rule:evenodd;fill:rgb(63.529412%,50.980392%,11.764706%);fill-opacity:1;" d="M 235.890625 50.097656 L 233.257812 66.65625 L 237.84375 62.15625 Z M 235.890625 50.097656 "/>
<path style=" stroke:none;fill-rule:evenodd;fill:rgb(90.980392%,79.215686%,15.686275%);fill-opacity:1;" d="M 230.371094 60.96875 L 233.257812 66.65625 L 235.890625 50.097656 Z M 230.371094 60.96875 "/>
<path style=" stroke:none;fill-rule:evenodd;fill:rgb(86.666667%,72.54902%,2.745098%);fill-opacity:1;" d="M 230.371094 60.96875 L 233.257812 66.65625 L 218.226562 59.101562 Z M 230.371094 60.96875 "/>
<path style=" stroke:none;fill-rule:evenodd;fill:rgb(90.980392%,79.215686%,15.686275%);fill-opacity:1;" d="M 218.226562 59.101562 L 233.257812 66.65625 L 226.890625 67.761719 Z M 218.226562 59.101562 "/>
<path style=" stroke:none;fill-rule:evenodd;fill:rgb(86.666667%,72.54902%,2.745098%);fill-opacity:1;" d="M 226.890625 67.761719 L 233.257812 66.65625 L 221.371094 78.628906 Z M 226.890625 67.761719 "/>
<path style=" stroke:none;fill-rule:evenodd;fill:rgb(63.529412%,50.980392%,11.764706%);fill-opacity:1;" d="M 221.371094 78.628906 L 233.257812 66.65625 L 232.238281 73.109375 Z M 221.371094 78.628906 "/>
<path style=" stroke:none;fill-rule:evenodd;fill:rgb(78.823529%,63.529412%,5.490196%);fill-opacity:1;" d="M 67.675781 226.972656 L 66.65625 233.34375 L 59.015625 218.3125 Z M 67.675781 226.972656 "/>
<path style=" stroke:none;fill-rule:evenodd;fill:rgb(86.666667%,72.54902%,2.745098%);fill-opacity:1;" d="M 60.96875 230.371094 L 66.65625 233.34375 L 59.015625 218.3125 Z M 60.96875 230.371094 "/>
<path style=" stroke:none;fill-rule:evenodd;fill:rgb(90.980392%,79.215686%,15.686275%);fill-opacity:1;" d="M 50.015625 235.890625 L 66.65625 233.34375 L 60.96875 230.371094 Z M 50.015625 235.890625 "/>
<path style=" stroke:none;fill-rule:evenodd;fill:rgb(71.764706%,58.039216%,9.411765%);fill-opacity:1;" d="M 62.15625 237.84375 L 66.65625 233.34375 L 50.015625 235.890625 Z M 62.15625 237.84375 "/>
<path style=" stroke:none;fill-rule:evenodd;fill:rgb(86.666667%,72.54902%,2.745098%);fill-opacity:1;" d="M 64.023438 249.902344 L 66.65625 233.34375 L 62.15625 237.84375 Z M 64.023438 249.902344 "/>
<path style=" stroke:none;fill-rule:evenodd;fill:rgb(63.529412%,50.980392%,11.764706%);fill-opacity:1;" d="M 69.628906 239.03125 L 66.65625 233.34375 L 64.023438 249.902344 Z M 69.628906 239.03125 "/>
<path style=" stroke:none;fill-rule:evenodd;fill:rgb(78.823529%,63.529412%,5.490196%);fill-opacity:1;" d="M 69.628906 239.03125 L 66.65625 233.34375 L 81.6875 240.898438 Z M 69.628906 239.03125 "/>
<path style=" stroke:none;fill-rule:evenodd;fill:rgb(71.764706%,58.039216%,9.411765%);fill-opacity:1;" d="M 81.6875 240.898438 L 66.65625 233.34375 L 73.027344 232.324219 Z M 81.6875 240.898438 "/>
<path style=" stroke:none;fill-rule:evenodd;fill:rgb(63.529412%,50.980392%,11.764706%);fill-opacity:1;" d="M 73.027344 232.324219 L 66.65625 233.34375 L 78.546875 221.371094 Z M 73.027344 232.324219 "/>
<path style=" stroke:none;fill-rule:evenodd;fill:rgb(86.666667%,72.54902%,2.745098%);fill-opacity:1;" d="M 78.546875 221.371094 L 66.65625 233.34375 L 67.675781 226.972656 Z M 78.546875 221.371094 "/>
<path style=" stroke:none;fill-rule:evenodd;fill:rgb(63.529412%,50.980392%,11.764706%);fill-opacity:1;" d="M 73.027344 67.761719 L 66.65625 66.742188 L 81.6875 59.101562 Z M 73.027344 67.761719 "/>
<path style=" stroke:none;fill-rule:evenodd;fill:rgb(86.666667%,72.54902%,2.745098%);fill-opacity:1;" d="M 69.628906 60.96875 L 66.65625 66.742188 L 81.6875 59.101562 Z M 69.628906 60.96875 "/>
<path style=" stroke:none;fill-rule:evenodd;fill:rgb(63.529412%,50.980392%,11.764706%);fill-opacity:1;" d="M 64.023438 50.097656 L 66.65625 66.742188 L 69.628906 60.96875 Z M 64.023438 50.097656 "/>
<path style=" stroke:none;fill-rule:evenodd;fill:rgb(90.980392%,79.215686%,15.686275%);fill-opacity:1;" d="M 62.15625 62.15625 L 66.65625 66.742188 L 64.023438 50.097656 Z M 62.15625 62.15625 "/>
<path style=" stroke:none;fill-rule:evenodd;fill:rgb(86.666667%,72.54902%,2.745098%);fill-opacity:1;" d="M 50.097656 64.109375 L 66.65625 66.742188 L 62.15625 62.15625 Z M 50.097656 64.109375 "/>
<path style=" stroke:none;fill-rule:evenodd;fill:rgb(78.823529%,63.529412%,5.490196%);fill-opacity:1;" d="M 60.96875 69.628906 L 66.65625 66.742188 L 50.097656 64.109375 Z M 60.96875 69.628906 "/>
<path style=" stroke:none;fill-rule:evenodd;fill:rgb(90.980392%,79.215686%,15.686275%);fill-opacity:1;" d="M 60.96875 69.628906 L 66.65625 66.742188 L 59.015625 81.6875 Z M 60.96875 69.628906 "/>
<path style=" stroke:none;fill-rule:evenodd;fill:rgb(63.529412%,50.980392%,11.764706%);fill-opacity:1;" d="M 59.015625 81.6875 L 66.65625 66.742188 L 67.675781 73.109375 Z M 59.015625 81.6875 "/>
<path style=" stroke:none;fill-rule:evenodd;fill:rgb(78.823529%,63.529412%,5.490196%);fill-opacity:1;" d="M 67.675781 73.109375 L 66.65625 66.742188 L 78.628906 78.628906 Z M 67.675781 73.109375 "/>
<path style=" stroke:none;fill-rule:evenodd;fill:rgb(71.764706%,58.039216%,9.411765%);fill-opacity:1;" d="M 78.628906 78.628906 L 66.65625 66.742188 L 73.027344 67.761719 Z M 78.628906 78.628906 "/>
<path style=" stroke:none;fill-rule:evenodd;fill:rgb(86.666667%,72.54902%,2.745098%);fill-opacity:1;" d="M 226.890625 232.324219 L 233.34375 233.257812 L 218.226562 240.898438 Z M 226.890625 232.324219 "/>
<path style=" stroke:none;fill-rule:evenodd;fill:rgb(71.764706%,58.039216%,9.411765%);fill-opacity:1;" d="M 230.371094 239.03125 L 233.34375 233.257812 L 218.226562 240.898438 Z M 230.371094 239.03125 "/>
<path style=" stroke:none;fill-rule:evenodd;fill:rgb(78.823529%,63.529412%,5.490196%);fill-opacity:1;" d="M 235.890625 249.902344 L 233.34375 233.257812 L 230.371094 239.03125 Z M 235.890625 249.902344 "/>
<path style=" stroke:none;fill-rule:evenodd;fill:rgb(63.529412%,50.980392%,11.764706%);fill-opacity:1;" d="M 237.84375 237.84375 L 233.34375 233.257812 L 235.890625 249.902344 Z M 237.84375 237.84375 "/>
<path style=" stroke:none;fill-rule:evenodd;fill:rgb(71.764706%,58.039216%,9.411765%);fill-opacity:1;" d="M 249.902344 235.976562 L 233.34375 233.257812 L 237.84375 237.84375 Z M 249.902344 235.976562 "/>
<path style=" stroke:none;fill-rule:evenodd;fill:rgb(78.823529%,63.529412%,5.490196%);fill-opacity:1;" d="M 238.945312 230.371094 L 233.34375 233.257812 L 249.902344 235.976562 Z M 238.945312 230.371094 "/>
<path style=" stroke:none;fill-rule:evenodd;fill:rgb(71.764706%,58.039216%,9.411765%);fill-opacity:1;" d="M 238.945312 230.371094 L 233.34375 233.257812 L 240.898438 218.3125 Z M 238.945312 230.371094 "/>
<path style=" stroke:none;fill-rule:evenodd;fill:rgb(90.980392%,79.215686%,15.686275%);fill-opacity:1;" d="M 240.898438 218.3125 L 233.34375 233.257812 L 232.238281 226.972656 Z M 240.898438 218.3125 "/>
<path style=" stroke:none;fill-rule:evenodd;fill:rgb(86.666667%,72.54902%,2.745098%);fill-opacity:1;" d="M 232.238281 226.972656 L 233.34375 233.257812 L 221.371094 221.371094 Z M 232.238281 226.972656 "/>
<path style=" stroke:none;fill-rule:evenodd;fill:rgb(90.980392%,79.215686%,15.686275%);fill-opacity:1;" d="M 221.371094 221.371094 L 233.34375 233.257812 L 226.890625 232.324219 Z M 221.371094 221.371094 "/>
<path style=" stroke:none;fill-rule:evenodd;fill:rgb(86.666667%,72.54902%,2.745098%);fill-opacity:1;" d="M 255.421875 110.386719 L 258.816406 104.867188 L 260.089844 121.765625 Z M 255.421875 110.386719 "/>
<path style=" stroke:none;fill-rule:evenodd;fill:rgb(63.529412%,50.980392%,11.764706%);fill-opacity:1;" d="M 262.976562 109.792969 L 258.816406 104.867188 L 260.089844 121.765625 Z M 262.976562 109.792969 "/>
<path style=" stroke:none;fill-rule:evenodd;fill:rgb(71.764706%,58.039216%,9.411765%);fill-opacity:1;" d="M 275.121094 108.859375 L 258.816406 104.867188 L 262.976562 109.792969 Z M 275.121094 108.859375 "/>
<path style=" stroke:none;fill-rule:evenodd;fill:rgb(78.823529%,63.529412%,5.490196%);fill-opacity:1;" d="M 264.761719 102.492188 L 258.816406 104.867188 L 275.121094 108.859375 Z M 264.761719 102.492188 "/>
<path style=" stroke:none;fill-rule:evenodd;fill:rgb(63.529412%,50.980392%,11.764706%);fill-opacity:1;" d="M 267.5625 90.601562 L 258.816406 104.867188 L 264.761719 102.492188 Z M 267.5625 90.601562 "/>
<path style=" stroke:none;fill-rule:evenodd;fill:rgb(86.666667%,72.54902%,2.745098%);fill-opacity:1;" d="M 258.308594 98.5 L 258.816406 104.867188 L 267.5625 90.601562 Z M 258.308594 98.5 "/>
<path style=" stroke:none;fill-rule:evenodd;fill:rgb(78.823529%,63.529412%,5.490196%);fill-opacity:1;" d="M 258.308594 98.5 L 258.816406 104.867188 L 247.863281 92.132812 Z M 258.308594 98.5 "/>
<path style=" stroke:none;fill-rule:evenodd;fill:rgb(90.980392%,79.215686%,15.686275%);fill-opacity:1;" d="M 247.863281 92.132812 L 258.816406 104.867188 L 252.535156 103.425781 Z M 247.863281 92.132812 "/>
<path style=" stroke:none;fill-rule:evenodd;fill:rgb(86.666667%,72.54902%,2.745098%);fill-opacity:1;" d="M 252.535156 103.425781 L 258.816406 104.867188 L 243.277344 111.40625 Z M 252.535156 103.425781 "/>
<path style=" stroke:none;fill-rule:evenodd;fill:rgb(71.764706%,58.039216%,9.411765%);fill-opacity:1;" d="M 243.277344 111.40625 L 258.816406 104.867188 L 255.421875 110.386719 Z M 243.277344 111.40625 "/>
<path style=" stroke:none;fill-rule:evenodd;fill:rgb(63.529412%,50.980392%,11.764706%);fill-opacity:1;" d="M 44.496094 189.613281 L 41.097656 195.132812 L 39.824219 178.320312 Z M 44.496094 189.613281 "/>
<path style=" stroke:none;fill-rule:evenodd;fill:rgb(90.980392%,79.215686%,15.686275%);fill-opacity:1;" d="M 37.023438 190.207031 L 41.097656 195.132812 L 39.824219 178.320312 Z M 37.023438 190.207031 "/>
<path style=" stroke:none;fill-rule:evenodd;fill:rgb(86.666667%,72.54902%,2.745098%);fill-opacity:1;" d="M 24.792969 191.140625 L 41.097656 195.132812 L 37.023438 190.207031 Z M 24.792969 191.140625 "/>
<path style=" stroke:none;fill-rule:evenodd;fill:rgb(78.823529%,63.529412%,5.490196%);fill-opacity:1;" d="M 35.238281 197.507812 L 41.097656 195.132812 L 24.792969 191.140625 Z M 35.238281 197.507812 "/>
<path style=" stroke:none;fill-rule:evenodd;fill:rgb(90.980392%,79.215686%,15.686275%);fill-opacity:1;" d="M 32.351562 209.398438 L 41.097656 195.132812 L 35.238281 197.507812 Z M 32.351562 209.398438 "/>
<path style=" stroke:none;fill-rule:evenodd;fill:rgb(63.529412%,50.980392%,11.764706%);fill-opacity:1;" d="M 41.691406 201.5 L 41.097656 195.132812 L 32.351562 209.398438 Z M 41.691406 201.5 "/>
<path style=" stroke:none;fill-rule:evenodd;fill:rgb(71.764706%,58.039216%,9.411765%);fill-opacity:1;" d="M 41.691406 201.5 L 41.097656 195.132812 L 52.050781 207.867188 Z M 41.691406 201.5 "/>
<path style=" stroke:none;fill-rule:evenodd;fill:rgb(86.666667%,72.54902%,2.745098%);fill-opacity:1;" d="M 52.050781 207.867188 L 41.097656 195.132812 L 47.382812 196.574219 Z M 52.050781 207.867188 "/>
<path style=" stroke:none;fill-rule:evenodd;fill:rgb(63.529412%,50.980392%,11.764706%);fill-opacity:1;" d="M 47.382812 196.574219 L 41.097656 195.132812 L 56.722656 188.59375 Z M 47.382812 196.574219 "/>
<path style=" stroke:none;fill-rule:evenodd;fill:rgb(86.666667%,72.54902%,2.745098%);fill-opacity:1;" d="M 56.722656 188.59375 L 41.097656 195.132812 L 44.496094 189.613281 Z M 56.722656 188.59375 "/>
<path style=" stroke:none;fill-rule:evenodd;fill:rgb(63.529412%,50.980392%,11.764706%);fill-opacity:1;" d="M 110.386719 44.578125 L 104.867188 41.183594 L 121.679688 39.910156 Z M 110.386719 44.578125 "/>
<path style=" stroke:none;fill-rule:evenodd;fill:rgb(78.823529%,63.529412%,5.490196%);fill-opacity:1;" d="M 109.792969 37.023438 L 104.867188 41.183594 L 121.679688 39.910156 Z M 109.792969 37.023438 "/>
<path style=" stroke:none;fill-rule:evenodd;fill:rgb(63.529412%,50.980392%,11.764706%);fill-opacity:1;" d="M 108.859375 24.792969 L 104.867188 41.183594 L 109.792969 37.023438 Z M 108.859375 24.792969 "/>
<path style=" stroke:none;fill-rule:evenodd;fill:rgb(90.980392%,79.215686%,15.686275%);fill-opacity:1;" d="M 102.40625 35.238281 L 104.867188 41.183594 L 108.859375 24.792969 Z M 102.40625 35.238281 "/>
<path style=" stroke:none;fill-rule:evenodd;fill:rgb(86.666667%,72.54902%,2.745098%);fill-opacity:1;" d="M 90.519531 32.4375 L 104.867188 41.183594 L 102.40625 35.238281 Z M 90.519531 32.4375 "/>
<path style=" stroke:none;fill-rule:evenodd;fill:rgb(78.823529%,63.529412%,5.490196%);fill-opacity:1;" d="M 98.5 41.691406 L 104.867188 41.183594 L 90.519531 32.4375 Z M 98.5 41.691406 "/>
<path style=" stroke:none;fill-rule:evenodd;fill:rgb(90.980392%,79.215686%,15.686275%);fill-opacity:1;" d="M 98.5 41.691406 L 104.867188 41.183594 L 92.132812 52.136719 Z M 98.5 41.691406 "/>
<path style=" stroke:none;fill-rule:evenodd;fill:rgb(63.529412%,50.980392%,11.764706%);fill-opacity:1;" d="M 92.132812 52.136719 L 104.867188 41.183594 L 103.425781 47.464844 Z M 92.132812 52.136719 "/>
<path style=" stroke:none;fill-rule:evenodd;fill:rgb(78.823529%,63.529412%,5.490196%);fill-opacity:1;" d="M 103.425781 47.464844 L 104.867188 41.183594 L 111.320312 56.722656 Z M 103.425781 47.464844 "/>
<path style=" stroke:none;fill-rule:evenodd;fill:rgb(63.529412%,50.980392%,11.764706%);fill-opacity:1;" d="M 111.320312 56.722656 L 104.867188 41.183594 L 110.386719 44.578125 Z M 111.320312 56.722656 "/>
<path style=" stroke:none;fill-rule:evenodd;fill:rgb(86.666667%,72.54902%,2.745098%);fill-opacity:1;" d="M 189.527344 255.503906 L 195.046875 258.816406 L 178.234375 260.175781 Z M 189.527344 255.503906 "/>
<path style=" stroke:none;fill-rule:evenodd;fill:rgb(71.764706%,58.039216%,9.411765%);fill-opacity:1;" d="M 190.121094 262.976562 L 195.046875 258.816406 L 178.234375 260.175781 Z M 190.121094 262.976562 "/>
<path style=" stroke:none;fill-rule:evenodd;fill:rgb(78.823529%,63.529412%,5.490196%);fill-opacity:1;" d="M 191.140625 275.207031 L 195.046875 258.816406 L 190.121094 262.976562 Z M 191.140625 275.207031 "/>
<path style=" stroke:none;fill-rule:evenodd;fill:rgb(63.529412%,50.980392%,11.764706%);fill-opacity:1;" d="M 197.507812 264.761719 L 195.046875 258.816406 L 191.140625 275.207031 Z M 197.507812 264.761719 "/>
<path style=" stroke:none;fill-rule:evenodd;fill:rgb(71.764706%,58.039216%,9.411765%);fill-opacity:1;" d="M 209.398438 267.648438 L 195.046875 258.816406 L 197.507812 264.761719 Z M 209.398438 267.648438 "/>
<path style=" stroke:none;fill-rule:evenodd;fill:rgb(78.823529%,63.529412%,5.490196%);fill-opacity:1;" d="M 201.414062 258.308594 L 195.046875 258.816406 L 209.398438 267.648438 Z M 201.414062 258.308594 "/>
<path style=" stroke:none;fill-rule:evenodd;fill:rgb(63.529412%,50.980392%,11.764706%);fill-opacity:1;" d="M 201.414062 258.308594 L 195.046875 258.816406 L 207.867188 247.863281 Z M 201.414062 258.308594 "/>
<path style=" stroke:none;fill-rule:evenodd;fill:rgb(86.666667%,72.54902%,2.745098%);fill-opacity:1;" d="M 207.867188 247.863281 L 195.046875 258.816406 L 196.574219 252.617188 Z M 207.867188 247.863281 "/>
<path style=" stroke:none;fill-rule:evenodd;fill:rgb(78.823529%,63.529412%,5.490196%);fill-opacity:1;" d="M 196.574219 252.617188 L 195.046875 258.816406 L 188.59375 243.277344 Z M 196.574219 252.617188 "/>
<path style=" stroke:none;fill-rule:evenodd;fill:rgb(90.980392%,79.215686%,15.686275%);fill-opacity:1;" d="M 188.59375 243.277344 L 195.046875 258.816406 L 189.527344 255.503906 Z M 188.59375 243.277344 "/>
<path style=" stroke:none;fill-rule:evenodd;fill:rgb(78.823529%,63.529412%,5.490196%);fill-opacity:1;" d="M 196.574219 47.464844 L 195.046875 41.183594 L 207.867188 52.136719 Z M 196.574219 47.464844 "/>
<path style=" stroke:none;fill-rule:evenodd;fill:rgb(71.764706%,58.039216%,9.411765%);fill-opacity:1;" d="M 201.5 41.691406 L 195.046875 41.183594 L 207.867188 52.136719 Z M 201.5 41.691406 "/>
<path style=" stroke:none;fill-rule:evenodd;fill:rgb(63.529412%,50.980392%,11.764706%);fill-opacity:1;" d="M 209.398438 32.4375 L 195.046875 41.183594 L 201.5 41.691406 Z M 209.398438 32.4375 "/>
<path style=" stroke:none;fill-rule:evenodd;fill:rgb(78.823529%,63.529412%,5.490196%);fill-opacity:1;" d="M 197.507812 35.238281 L 195.046875 41.183594 L 209.398438 32.4375 Z M 197.507812 35.238281 "/>
<path style=" stroke:none;fill-rule:evenodd;fill:rgb(71.764706%,58.039216%,9.411765%);fill-opacity:1;" d="M 191.140625 24.792969 L 195.046875 41.183594 L 197.507812 35.238281 Z M 191.140625 24.792969 "/>
<path style=" stroke:none;fill-rule:evenodd;fill:rgb(90.980392%,79.215686%,15.686275%);fill-opacity:1;" d="M 190.207031 37.023438 L 195.046875 41.183594 L 191.140625 24.792969 Z M 190.207031 37.023438 "/>
<path style=" stroke:none;fill-rule:evenodd;fill:rgb(86.666667%,72.54902%,2.745098%);fill-opacity:1;" d="M 190.207031 37.023438 L 195.046875 41.183594 L 178.234375 39.910156 Z M 190.207031 37.023438 "/>
<path style=" stroke:none;fill-rule:evenodd;fill:rgb(78.823529%,63.529412%,5.490196%);fill-opacity:1;" d="M 178.234375 39.910156 L 195.046875 41.183594 L 189.527344 44.578125 Z M 178.234375 39.910156 "/>
<path style=" stroke:none;fill-rule:evenodd;fill:rgb(86.666667%,72.54902%,2.745098%);fill-opacity:1;" d="M 189.527344 44.578125 L 195.046875 41.183594 L 188.59375 56.722656 Z M 189.527344 44.578125 "/>
<path style=" stroke:none;fill-rule:evenodd;fill:rgb(71.764706%,58.039216%,9.411765%);fill-opacity:1;" d="M 188.59375 56.722656 L 195.046875 41.183594 L 196.574219 47.464844 Z M 188.59375 56.722656 "/>
<path style=" stroke:none;fill-rule:evenodd;fill:rgb(86.666667%,72.54902%,2.745098%);fill-opacity:1;" d="M 103.425781 252.617188 L 104.867188 258.902344 L 92.132812 247.863281 Z M 103.425781 252.617188 "/>
<path style=" stroke:none;fill-rule:evenodd;fill:rgb(78.823529%,63.529412%,5.490196%);fill-opacity:1;" d="M 98.5 258.308594 L 104.867188 258.902344 L 92.132812 247.863281 Z M 98.5 258.308594 "/>
<path style=" stroke:none;fill-rule:evenodd;fill:rgb(90.980392%,79.215686%,15.686275%);fill-opacity:1;" d="M 90.519531 267.648438 L 104.867188 258.902344 L 98.5 258.308594 Z M 90.519531 267.648438 "/>
<path style=" stroke:none;fill-rule:evenodd;fill:rgb(63.529412%,50.980392%,11.764706%);fill-opacity:1;" d="M 102.40625 264.761719 L 104.867188 258.902344 L 90.519531 267.648438 Z M 102.40625 264.761719 "/>
<path style=" stroke:none;fill-rule:evenodd;fill:rgb(78.823529%,63.529412%,5.490196%);fill-opacity:1;" d="M 108.859375 275.207031 L 104.867188 258.902344 L 102.40625 264.761719 Z M 108.859375 275.207031 "/>
<path style=" stroke:none;fill-rule:evenodd;fill:rgb(63.529412%,50.980392%,11.764706%);fill-opacity:1;" d="M 109.792969 262.976562 L 104.867188 258.902344 L 108.859375 275.207031 Z M 109.792969 262.976562 "/>
<path style=" stroke:none;fill-rule:evenodd;fill:rgb(86.666667%,72.54902%,2.745098%);fill-opacity:1;" d="M 109.792969 262.976562 L 104.867188 258.902344 L 121.679688 260.175781 Z M 109.792969 262.976562 "/>
<path style=" stroke:none;fill-rule:evenodd;fill:rgb(78.823529%,63.529412%,5.490196%);fill-opacity:1;" d="M 121.679688 260.175781 L 104.867188 258.902344 L 110.386719 255.421875 Z M 121.679688 260.175781 "/>
<path style=" stroke:none;fill-rule:evenodd;fill:rgb(63.529412%,50.980392%,11.764706%);fill-opacity:1;" d="M 110.386719 255.421875 L 104.867188 258.902344 L 111.320312 243.277344 Z M 110.386719 255.421875 "/>
<path style=" stroke:none;fill-rule:evenodd;fill:rgb(90.980392%,79.215686%,15.686275%);fill-opacity:1;" d="M 111.320312 243.277344 L 104.867188 258.902344 L 103.425781 252.617188 Z M 111.320312 243.277344 "/>
<path style=" stroke:none;fill-rule:evenodd;fill:rgb(63.529412%,50.980392%,11.764706%);fill-opacity:1;" d="M 47.382812 103.425781 L 41.097656 104.953125 L 52.050781 92.132812 Z M 47.382812 103.425781 "/>
<path style=" stroke:none;fill-rule:evenodd;fill:rgb(86.666667%,72.54902%,2.745098%);fill-opacity:1;" d="M 41.691406 98.5 L 41.097656 104.953125 L 52.050781 92.132812 Z M 41.691406 98.5 "/>
<path style=" stroke:none;fill-rule:evenodd;fill:rgb(78.823529%,63.529412%,5.490196%);fill-opacity:1;" d="M 32.351562 90.601562 L 41.097656 104.953125 L 41.691406 98.5 Z M 32.351562 90.601562 "/>
<path style=" stroke:none;fill-rule:evenodd;fill:rgb(86.666667%,72.54902%,2.745098%);fill-opacity:1;" d="M 35.238281 102.492188 L 41.097656 104.953125 L 32.351562 90.601562 Z M 35.238281 102.492188 "/>
<path style=" stroke:none;fill-rule:evenodd;fill:rgb(90.980392%,79.215686%,15.686275%);fill-opacity:1;" d="M 24.792969 108.859375 L 41.097656 104.953125 L 35.238281 102.492188 Z M 24.792969 108.859375 "/>
<path style=" stroke:none;fill-rule:evenodd;fill:rgb(71.764706%,58.039216%,9.411765%);fill-opacity:1;" d="M 37.023438 109.792969 L 41.097656 104.953125 L 24.792969 108.859375 Z M 37.023438 109.792969 "/>
<path style=" stroke:none;fill-rule:evenodd;fill:rgb(78.823529%,63.529412%,5.490196%);fill-opacity:1;" d="M 37.023438 109.792969 L 41.097656 104.953125 L 39.824219 121.679688 Z M 37.023438 109.792969 "/>
<path style=" stroke:none;fill-rule:evenodd;fill:rgb(63.529412%,50.980392%,11.764706%);fill-opacity:1;" d="M 39.824219 121.679688 L 41.097656 104.953125 L 44.496094 110.386719 Z M 39.824219 121.679688 "/>
<path style=" stroke:none;fill-rule:evenodd;fill:rgb(71.764706%,58.039216%,9.411765%);fill-opacity:1;" d="M 44.496094 110.386719 L 41.097656 104.953125 L 56.722656 111.40625 Z M 44.496094 110.386719 "/>
<path style=" stroke:none;fill-rule:evenodd;fill:rgb(78.823529%,63.529412%,5.490196%);fill-opacity:1;" d="M 56.722656 111.40625 L 41.097656 104.953125 L 47.382812 103.425781 Z M 56.722656 111.40625 "/>
<path style=" stroke:none;fill-rule:evenodd;fill:rgb(90.980392%,79.215686%,15.686275%);fill-opacity:1;" d="M 252.535156 196.574219 L 258.816406 195.046875 L 247.863281 207.867188 Z M 252.535156 196.574219 "/>
<path style=" stroke:none;fill-rule:evenodd;fill:rgb(63.529412%,50.980392%,11.764706%);fill-opacity:1;" d="M 258.308594 201.5 L 258.816406 195.046875 L 247.863281 207.867188 Z M 258.308594 201.5 "/>
<path style=" stroke:none;fill-rule:evenodd;fill:rgb(78.823529%,63.529412%,5.490196%);fill-opacity:1;" d="M 267.5625 209.480469 L 258.816406 195.046875 L 258.308594 201.5 Z M 267.5625 209.480469 "/>
<path style=" stroke:none;fill-rule:evenodd;fill:rgb(86.666667%,72.54902%,2.745098%);fill-opacity:1;" d="M 264.761719 197.507812 L 258.816406 195.046875 L 267.5625 209.480469 Z M 264.761719 197.507812 "/>
<path style=" stroke:none;fill-rule:evenodd;fill:rgb(71.764706%,58.039216%,9.411765%);fill-opacity:1;" d="M 275.121094 191.140625 L 258.816406 195.046875 L 264.761719 197.507812 Z M 275.121094 191.140625 "/>
<path style=" stroke:none;fill-rule:evenodd;fill:rgb(86.666667%,72.54902%,2.745098%);fill-opacity:1;" d="M 262.976562 190.207031 L 258.816406 195.046875 L 275.121094 191.140625 Z M 262.976562 190.207031 "/>
<path style=" stroke:none;fill-rule:evenodd;fill:rgb(63.529412%,50.980392%,11.764706%);fill-opacity:1;" d="M 262.976562 190.207031 L 258.816406 195.046875 L 260.089844 178.320312 Z M 262.976562 190.207031 "/>
<path style=" stroke:none;fill-rule:evenodd;fill:rgb(90.980392%,79.215686%,15.686275%);fill-opacity:1;" d="M 260.089844 178.320312 L 258.816406 195.046875 L 255.421875 189.613281 Z M 260.089844 178.320312 "/>
<path style=" stroke:none;fill-rule:evenodd;fill:rgb(78.823529%,63.529412%,5.490196%);fill-opacity:1;" d="M 255.421875 189.613281 L 258.816406 195.046875 L 243.191406 188.679688 Z M 255.421875 189.613281 "/>
<path style=" stroke:none;fill-rule:evenodd;fill:rgb(86.666667%,72.54902%,2.745098%);fill-opacity:1;" d="M 243.191406 188.679688 L 258.816406 195.046875 L 252.535156 196.574219 Z M 243.191406 188.679688 "/>
<path style=" stroke:none;fill-rule:evenodd;fill:rgb(90.588235%,79.215686%,30.588235%);fill-opacity:1;" d="M 149.957031 65.894531 L 149.957031 150.042969 L 141.722656 108.773438 Z M 149.957031 65.894531 "/>
<path style=" stroke:none;fill-rule:evenodd;fill:rgb(63.529412%,50.980392%,11.764706%);fill-opacity:1;" d="M 149.957031 65.894531 L 149.957031 150.042969 L 158.195312 108.773438 Z M 149.957031 65.894531 "/>
<path style=" stroke:none;fill-rule:evenodd;fill:rgb(63.529412%,50.980392%,11.764706%);fill-opacity:1;" d="M 149.957031 234.191406 L 149.957031 150.042969 L 158.195312 191.308594 Z M 149.957031 234.191406 "/>
<path style=" stroke:none;fill-rule:evenodd;fill:rgb(78.823529%,63.529412%,5.490196%);fill-opacity:1;" d="M 149.957031 234.191406 L 149.957031 150.042969 L 141.722656 191.308594 Z M 149.957031 234.191406 "/>
<path style=" stroke:none;fill-rule:evenodd;fill:rgb(78.823529%,63.529412%,5.490196%);fill-opacity:1;" d="M 65.808594 150.042969 L 149.957031 150.042969 L 108.691406 158.195312 Z M 65.808594 150.042969 "/>
<path style=" stroke:none;fill-rule:evenodd;fill:rgb(86.666667%,72.54902%,2.745098%);fill-opacity:1;" d="M 65.808594 150.042969 L 149.957031 150.042969 L 108.691406 141.804688 Z M 65.808594 150.042969 "/>
<path style=" stroke:none;fill-rule:evenodd;fill:url(#linear0);" d="M 234.105469 150.042969 L 149.957031 150.042969 L 191.226562 141.804688 Z M 234.105469 150.042969 "/>
<path style=" stroke:none;fill-rule:evenodd;fill:url(#linear1);" d="M 234.105469 150.042969 L 149.957031 150.042969 L 191.226562 158.195312 Z M 234.105469 150.042969 "/>
<path style=" stroke:none;fill-rule:evenodd;fill:rgb(86.666667%,72.54902%,2.745098%);fill-opacity:1;" d="M 90.433594 90.519531 L 149.957031 150.042969 L 114.972656 126.605469 Z M 90.433594 90.519531 "/>
<path style=" stroke:none;fill-rule:evenodd;fill:rgb(78.823529%,63.529412%,5.490196%);fill-opacity:1;" d="M 90.433594 90.519531 L 149.957031 150.042969 L 126.605469 115.058594 Z M 90.433594 90.519531 "/>
<path style=" stroke:none;fill-rule:evenodd;fill:rgb(71.764706%,58.039216%,9.411765%);fill-opacity:1;" d="M 209.480469 209.480469 L 149.957031 150.042969 L 184.941406 173.394531 Z M 209.480469 209.480469 "/>
<path style=" stroke:none;fill-rule:evenodd;fill:url(#linear2);" d="M 209.480469 209.480469 L 149.957031 150.042969 L 173.308594 185.027344 Z M 209.480469 209.480469 "/>
<path style=" stroke:none;fill-rule:evenodd;fill:rgb(71.764706%,58.039216%,9.411765%);fill-opacity:1;" d="M 90.433594 209.480469 L 149.957031 150.042969 L 126.605469 185.027344 Z M 90.433594 209.480469 "/>
<path style=" stroke:none;fill-rule:evenodd;fill:rgb(86.666667%,72.54902%,2.745098%);fill-opacity:1;" d="M 90.433594 209.480469 L 149.957031 150.042969 L 114.972656 173.394531 Z M 90.433594 209.480469 "/>
<path style=" stroke:none;fill-rule:evenodd;fill:url(#linear3);" d="M 209.480469 90.519531 L 149.957031 150.042969 L 173.308594 115.058594 Z M 209.480469 90.519531 "/>
<path style=" stroke:none;fill-rule:evenodd;fill:url(#linear4);" d="M 209.480469 90.519531 L 149.957031 150.042969 L 184.941406 126.605469 Z M 209.480469 90.519531 "/>
<path style=" stroke:none;fill-rule:evenodd;fill:rgb(90.980392%,79.215686%,15.686275%);fill-opacity:1;" d="M 126.605469 115.058594 L 149.957031 150.042969 L 124.230469 87.800781 Z M 126.605469 115.058594 "/>
<path style=" stroke:none;fill-rule:evenodd;fill:rgb(71.764706%,58.039216%,9.411765%);fill-opacity:1;" d="M 141.804688 108.773438 L 149.957031 150.042969 L 124.230469 87.800781 Z M 141.804688 108.773438 "/>
<path style=" stroke:none;fill-rule:evenodd;fill:rgb(63.529412%,50.980392%,11.764706%);fill-opacity:1;" d="M 173.308594 185.027344 L 149.957031 150.042969 L 175.769531 212.199219 Z M 173.308594 185.027344 "/>
<path style=" stroke:none;fill-rule:evenodd;fill:url(#linear5);" d="M 158.195312 191.308594 L 149.957031 150.042969 L 175.769531 212.199219 Z M 158.195312 191.308594 "/>
<path style=" stroke:none;fill-rule:evenodd;fill:rgb(71.764706%,58.039216%,9.411765%);fill-opacity:1;" d="M 114.972656 173.394531 L 149.957031 150.042969 L 87.800781 175.769531 Z M 114.972656 173.394531 "/>
<path style=" stroke:none;fill-rule:evenodd;fill:rgb(86.666667%,72.54902%,2.745098%);fill-opacity:1;" d="M 108.691406 158.195312 L 149.957031 150.042969 L 87.800781 175.769531 Z M 108.691406 158.195312 "/>
<path style=" stroke:none;fill-rule:evenodd;fill:url(#linear6);" d="M 184.941406 126.605469 L 149.957031 150.042969 L 212.199219 124.230469 Z M 184.941406 126.605469 "/>
<path style=" stroke:none;fill-rule:evenodd;fill:url(#linear7);" d="M 191.226562 141.804688 L 149.957031 150.042969 L 212.199219 124.230469 Z M 191.226562 141.804688 "/>
<path style=" stroke:none;fill-rule:evenodd;fill:rgb(78.823529%,63.529412%,5.490196%);fill-opacity:1;" d="M 108.691406 141.804688 L 149.957031 150.042969 L 87.800781 124.230469 Z M 108.691406 141.804688 "/>
<path style=" stroke:none;fill-rule:evenodd;fill:rgb(86.666667%,72.54902%,2.745098%);fill-opacity:1;" d="M 114.972656 126.605469 L 149.957031 150.042969 L 87.800781 124.230469 Z M 114.972656 126.605469 "/>
<path style=" stroke:none;fill-rule:evenodd;fill:rgb(71.764706%,58.039216%,9.411765%);fill-opacity:1;" d="M 191.226562 158.195312 L 149.957031 150.042969 L 212.199219 175.769531 Z M 191.226562 158.195312 "/>
<path style=" stroke:none;fill-rule:evenodd;fill:url(#linear8);" d="M 184.941406 173.394531 L 149.957031 150.042969 L 212.199219 175.769531 Z M 184.941406 173.394531 "/>
<path style=" stroke:none;fill-rule:evenodd;fill:rgb(71.764706%,58.039216%,9.411765%);fill-opacity:1;" d="M 141.722656 191.308594 L 149.957031 150.042969 L 124.230469 212.199219 Z M 141.722656 191.308594 "/>
<path style=" stroke:none;fill-rule:evenodd;fill:rgb(78.823529%,63.529412%,5.490196%);fill-opacity:1;" d="M 126.605469 185.027344 L 149.957031 150.042969 L 124.230469 212.199219 Z M 126.605469 185.027344 "/>
<path style=" stroke:none;fill-rule:evenodd;fill:url(#linear9);" d="M 158.195312 108.773438 L 149.957031 150.042969 L 175.769531 87.800781 Z M 158.195312 108.773438 "/>
<path style=" stroke:none;fill-rule:evenodd;fill:rgb(63.529412%,50.980392%,11.764706%);fill-opacity:1;" d="M 173.308594 115.058594 L 149.957031 150.042969 L 175.769531 87.800781 Z M 173.308594 115.058594 "/>
</g>
</svg>
