<?xml version="1.0" encoding="UTF-8" standalone="no"?>
<!-- Created with Inkscape (http://www.inkscape.org/) -->
<svg
   xmlns:dc="http://purl.org/dc/elements/1.1/"
   xmlns:cc="http://web.resource.org/cc/"
   xmlns:rdf="http://www.w3.org/1999/02/22-rdf-syntax-ns#"
   xmlns:svg="http://www.w3.org/2000/svg"
   xmlns="http://www.w3.org/2000/svg"
   xmlns:sodipodi="http://sodipodi.sourceforge.net/DTD/sodipodi-0.dtd"
   xmlns:inkscape="http://www.inkscape.org/namespaces/inkscape"
   width="600"
   height="357.29999"
   id="svg2"
   sodipodi:version="0.32"
   inkscape:version="0.44"
   version="1.0"
   sodipodi:docbase="/media/data/Documents/Wiki/Bilder"
   sodipodi:docname="Genç Parti - no font.svg">
  <defs
     id="defs4" />
  <sodipodi:namedview
     id="base"
     pagecolor="white"
     bordercolor="#666666"
     borderopacity="1.0"
     inkscape:pageopacity="1"
     inkscape:pageshadow="2"
     inkscape:zoom="0.86180109"
     inkscape:cx="305.45459"
     inkscape:cy="175.49749"
     inkscape:document-units="px"
     inkscape:current-layer="layer1"
     inkscape:window-width="1280"
     inkscape:window-height="749"
     inkscape:window-x="0"
     inkscape:window-y="26" />
  <metadata
     id="metadata7">
    <rdf:RDF>
      <cc:Work
         rdf:about="">
        <dc:format>image/svg+xml</dc:format>
        <dc:type
           rdf:resource="http://purl.org/dc/dcmitype/StillImage" />
      </cc:Work>
    </rdf:RDF>
  </metadata>
  <g
     inkscape:label="Ebene 1"
     inkscape:groupmode="layer"
     id="layer1"
     transform="translate(-150.3052,1.865696)">
    <path
       id="path3316"
       d="M 150.42067,176.7843 L 150.42067,-1.865696 L 450.42066,-1.865696 L 750.42066,-1.865696 L 750.42066,176.7843 L 750.42066,355.4343 L 450.42066,355.4343 L 150.42067,355.4343 L 150.42067,176.7843 z "
       style="fill:#fefefe" />
    <g
       id="g1991">
      <g
         transform="matrix(0.3,0,0,0.3,376.088,253.1445)"
         id="g1933">
        <path
           id="path1937"
           d="M -752.22449,122.20182 L -752.22449,-104.29818 L 247.77551,-104.29818 L 1247.7755,-104.29818 L 1247.7755,122.20182 L 1247.7755,348.70182 L 247.77551,348.70182 L -752.22449,348.70182 L -752.22449,122.20182 z "
           style="fill:#fdfdfd" />
        <path
           id="path1935"
           d="M 69.00244,330.95182 L 69.27551,313.20182 L 108.77551,313.20182 L 148.27551,313.20182 L 148.54858,330.95182 L 148.82166,348.70182 L 108.77551,348.70182 L 68.72936,348.70182 L 69.00244,330.95182 z M -613.04208,286.62514 C -681.75872,281.35032 -731.18093,234.8923 -746.56726,161.10836 C -750.87844,140.43449 -751.66571,131.62302 -751.65169,104.20182 C -751.63699,75.46706 -750.40666,63.57865 -745.21123,41.9692 C -730.97804,-17.231212 -692.89003,-58.898522 -640.72449,-72.336621 C -623.22565,-76.844408 -615.34493,-77.738681 -593.22449,-77.726738 C -558.49245,-77.707985 -532.0907,-71.90535 -502.47449,-57.781503 L -491.22449,-52.416425 L -491.22449,-16.916319 C -491.22449,2.60874 -491.57763,18.80204 -492.00924,19.06879 C -492.44086,19.33554 -495.92836,17.50822 -499.75924,15.00807 C -516.43589,4.1244 -541.44057,-6.261491 -559.95459,-9.994545 C -573.25621,-12.676604 -599.95674,-12.39055 -610.72449,-9.450626 C -654.17935,2.41388 -676.27757,41.03948 -676.20497,105.00304 C -676.15451,149.45106 -666.93544,178.01947 -645.77395,199.30381 C -638.38026,206.74042 -635.16925,209.16583 -628.22449,212.55966 C -614.76072,219.13925 -606.35463,220.94523 -588.72449,221.04594 C -573.14919,221.13491 -561.92792,219.43729 -554.22449,215.82658 L -550.72449,214.18608 L -550.72449,180.19395 L -550.72449,146.20182 L -572.72449,145.70182 L -594.72449,145.20182 L -594.72449,115.20182 L -594.72449,85.20182 L -537.72449,85.20182 L -480.72449,85.20182 L -480.46881,169.43569 L -480.21314,253.66956 L -484.05147,256.0926 C -486.16256,257.42527 -492.35261,260.74609 -497.80715,263.4722 C -525.0469,277.0863 -552.28795,284.44672 -583.72449,286.6867 C -598.94528,287.77125 -598.08785,287.77305 -613.04208,286.62514 z M 102.59133,286.68983 C 64.26374,282.29177 34.88741,261.95564 17.94131,228.08977 C 6.72294,205.67049 2.07295,180.89441 3.05025,148.74727 C 3.87497,121.61922 7.8776,103.4261 17.27904,84.0733 C 33.13135,51.44141 59.39754,31.37366 94.34043,25.19727 C 107.66016,22.84293 128.83934,23.0656 141.74535,25.69567 C 153.37047,28.06472 167.12067,33.05043 176.52551,38.30666 L 182.77551,41.7997 L 182.77551,67.25076 C 182.77551,83.385 182.413,92.70182 181.78523,92.70182 C 181.24057,92.70182 177.75307,90.60603 174.03523,88.0445 C 165.36588,82.07149 151.21126,75.41013 142.27551,73.09794 C 131.48292,70.30527 111.36939,70.55653 102.77551,73.59136 C 77.63422,82.46974 62.70136,106.72344 59.71024,143.53725 C 57.4398,171.48121 62.6995,197.28902 74.18647,214.56789 C 86.15043,232.56424 103.36766,240.70093 126.70511,239.38767 C 143.92795,238.41848 157.12849,233.81481 172.67858,223.35446 C 177.30027,220.24551 181.47037,217.70182 181.94546,217.70182 C 182.42056,217.70182 182.68918,229.25613 182.54239,243.37805 L 182.27551,269.05429 L 175.27551,272.85927 C 154.65716,284.06676 126.47133,289.43004 102.59133,286.68983 z M 247.2421,286.46402 C 246.9781,285.76981 246.87761,209.37682 247.0188,116.70182 L 247.27551,-51.79818 L 313.77551,-52.095708 C 384.91951,-52.414014 396.11401,-51.920906 412.58871,-47.743069 C 430.93811,-43.089824 444.76161,-35.81465 456.98681,-24.376742 C 466.57941,-15.401957 472.48051,-7.338417 477.86541,4.15249 C 491.92821,34.16182 492.11431,82.45602 478.28241,112.39335 C 464.02081,143.2607 437.12001,161.84238 398.13101,167.75789 C 393.81051,168.41341 375.20051,169.23146 356.77551,169.57578 L 323.27551,170.20182 L 322.77551,228.70182 L 322.27551,287.20182 L 284.99881,287.46402 C 255.71241,287.67001 247.61921,287.45566 247.2421,286.46402 z M 379.24051,104.16891 C 399.59951,98.86608 409.98401,83.5615 410.09111,58.70182 C 410.16291,42.03224 405.92131,30.69152 396.33951,21.93428 C 386.16461,12.63502 375.60041,10.46408 342.77551,10.92688 L 323.27551,11.20182 L 323.01491,57.20182 C 322.87151,82.50182 322.96991,103.76432 323.23351,104.45182 C 323.99411,106.43571 371.45821,106.19595 379.24051,104.16891 z M 452.43031,286.95235 C 452.02321,286.29361 534.91111,41.4865 537.75381,34.95182 L 538.73261,32.70182 L 574.13161,32.70182 C 601.25621,32.70182 609.76201,32.99401 610.52061,33.95182 C 612.26691,36.15681 696.92221,285.65547 696.27781,286.6981 C 695.29981,288.28057 638.29891,288.04374 637.00211,286.45182 C 636.44201,285.76432 632.82661,275.30182 628.96781,263.20182 L 621.95181,241.20182 L 574.61371,241.20182 L 527.27551,241.20182 L 525.94631,245.20182 C 525.21521,247.40182 521.83911,257.75182 518.44391,268.20182 L 512.27081,287.20182 L 482.59131,287.4666 C 466.26761,287.61222 452.69511,287.38081 452.43031,286.95235 z M 605.77551,192.25132 C 605.77551,190.47553 576.14851,96.74152 575.32791,95.92084 C 575.00571,95.59871 574.34291,95.75515 573.85501,96.26849 C 572.51231,97.68103 542.78331,191.9055 543.37721,192.86636 C 543.66121,193.32586 557.81701,193.70182 574.83451,193.70182 C 601.20171,193.70182 605.77551,193.4874 605.77551,192.25132 z M 729.24271,286.46697 C 728.97781,285.77114 728.87681,228.50182 729.01831,159.20182 L 729.27551,33.20182 L 786.27551,33.20182 C 848.01681,33.20182 850.27751,33.35814 867.27551,38.8027 C 887.98691,45.43671 900.24641,57.12403 906.42321,76.12341 C 909.92701,86.9006 910.88811,109.02938 908.37931,121.16052 C 904.58061,139.52901 892.86141,154.8851 876.02551,163.55473 C 871.48801,165.89132 867.77551,167.99142 867.77551,168.22162 C 867.77551,168.45182 870.31991,169.88605 873.42981,171.4088 C 883.60311,176.39019 894.43371,189.13042 903.03501,206.2339 C 909.64881,219.38519 938.77551,284.4736 938.77551,286.10181 C 938.77551,287.57713 935.81491,287.70513 907.22761,287.46587 L 875.67981,287.20182 L 869.34251,273.20182 C 865.85691,265.50182 858.67391,249.62107 853.38021,237.91127 C 842.38781,213.59601 837.69111,205.60942 830.67371,199.30024 C 823.47051,192.82389 818.06301,191.28936 802.27551,191.24135 L 789.27551,191.20182 L 788.77551,239.20182 L 788.27551,287.20182 L 758.99991,287.46697 C 736.11761,287.67421 729.61921,287.45583 729.24271,286.46697 z M 831.31921,143.34412 C 838.11731,141.19128 843.96721,135.97154 846.83981,129.49532 C 848.85171,124.95952 849.19251,122.55574 849.22071,112.70182 C 849.24921,102.69449 848.94451,100.51474 846.87261,95.90832 C 841.37361,83.68209 832.57201,80.28384 806.27551,80.23402 L 789.27551,80.20182 L 789.01091,111.69262 C 788.86541,129.01256 788.98481,143.80489 789.27631,144.56445 C 790.05051,146.58199 824.22731,145.58998 831.31921,143.34412 z M 1012.2473,286.46697 C 1011.985,285.77114 1011.659,239.52682 1011.5229,183.70182 L 1011.2755,82.20182 L 972.77551,81.70182 L 934.27551,81.20182 L 934.27551,57.20182 L 934.27551,33.20182 L 1041.7755,33.20182 L 1149.2755,33.20182 L 1149.2755,57.20182 L 1149.2755,81.20182 L 1110.7755,81.70182 L 1072.2755,82.20182 L 1071.7755,184.70182 L 1071.2755,287.20182 L 1041.9999,287.46697 C 1019.1157,287.67422 1012.6202,287.45591 1012.2473,286.46697 z M 1181.2427,286.46697 C 1180.9778,285.77114 1180.8768,228.50182 1181.0183,159.20182 L 1181.2755,33.20182 L 1210.7755,33.20182 L 1240.2755,33.20182 L 1240.2755,160.20182 L 1240.2755,287.20182 L 1210.9999,287.46697 C 1188.1176,287.67421 1181.6192,287.45583 1181.2427,286.46697 z M -427.76065,281.45819 C -428.02371,280.76719 -428.12319,223.50182 -427.98171,154.20182 L -427.72449,28.20182 L -354.22449,28.20182 L -280.72449,28.20182 L -280.72449,52.70182 L -280.72449,77.20182 L -326.72449,77.70182 L -372.72449,78.20182 L -372.72449,101.20182 L -372.72449,124.20182 L -329.72449,124.70182 L -286.72449,125.20182 L -286.72449,149.70182 L -286.72449,174.20182 L -329.72449,174.70182 L -372.72449,175.20182 L -372.72449,203.70182 L -372.72449,232.20182 L -325.22449,232.70182 L -277.72449,233.20182 L -277.72449,257.70182 L -277.72449,282.20182 L -352.50343,282.45819 C -411.79723,282.66148 -427.38141,282.4544 -427.76065,281.45819 z M -228.75649,281.46904 C -229.02184,280.77207 -229.12319,223.50182 -228.98171,154.20182 L -228.72449,28.20182 L -198.24304,28.20182 L -167.76159,28.20182 L -130.67053,112.14266 C -110.27044,158.31012 -93.05216,196.25926 -92.40767,196.47409 C -91.51947,196.77016 -91.174,176.45558 -90.98019,112.53325 L -90.72449,28.20182 L -65.22449,28.20182 L -39.72449,28.20182 L -39.72449,155.20182 L -39.72449,282.20182 L -69.33987,282.46649 C -92.26036,282.67133 -99.19115,282.44527 -99.99877,281.46649 C -100.57272,280.77092 -117.23838,243.52682 -137.03358,198.70182 C -179.61427,102.28051 -175.35348,111.70182 -176.37939,111.70182 C -176.83802,111.70182 -177.32829,150.06432 -177.46887,196.95182 L -177.72449,282.20182 L -202.99927,282.46904 C -222.67883,282.67711 -228.38084,282.45573 -228.75649,281.46904 z M 1173.2154,5.40583 C 1172.9419,4.69304 1172.8435,-2.39446 1172.9968,-10.344165 L 1173.2755,-24.79818 L 1210.5255,-25.060351 L 1247.7755,-25.322522 L 1247.7755,-9.310351 L 1247.7755,6.70182 L 1210.7441,6.70182 C 1181.3407,6.70182 1173.6103,6.43486 1173.2154,5.40583 z "
           style="fill:#656565" />
      </g>
      <g
         transform="translate(-140.6048,-358.0327)"
         id="g10890">
        <path
           style="opacity:1;fill:red;fill-opacity:1;fill-rule:evenodd;stroke:none;stroke-width:0.1;stroke-linecap:butt;stroke-linejoin:miter;stroke-miterlimit:4;stroke-dasharray:none;stroke-opacity:1"
           d="M 454.18394,358.49268 C 400.20845,359.00011 345.51938,397.9154 343.78361,464.4579 L 343.71537,464.4579 C 343.71537,465.01306 343.77634,465.54405 343.78361,466.09548 C 343.77651,466.63997 343.71537,467.18493 343.71537,467.73306 L 343.78361,467.73306 C 346.76331,580.51102 501.94019,613.85217 547.6626,515.42765 C 505.47204,571.49536 403.55326,551.74223 402.25894,466.09548 C 403.55326,380.44873 505.47204,360.6956 547.6626,416.76332 C 528.90756,376.39021 491.71458,358.13984 454.18394,358.49268 z "
           id="path1886" />
        <path
           id="path2783"
           d="M 727.86691,358.49268 C 781.8424,359.00011 836.53147,397.9154 838.26724,464.4579 L 838.33548,464.4579 C 838.33548,465.01306 838.27452,465.54405 838.26724,466.09548 C 838.27434,466.63997 838.33548,467.18493 838.33548,467.73306 L 838.26724,467.73306 C 835.28754,580.51102 680.11066,613.85217 634.38825,515.42765 C 676.57881,571.49536 778.49759,551.74223 779.79191,466.09548 C 778.49759,380.44873 676.57881,360.6956 634.38825,416.76332 C 653.14329,376.39021 690.33627,358.13984 727.86691,358.49268 z "
           style="opacity:1;fill:red;fill-opacity:1;fill-rule:evenodd;stroke:none;stroke-width:0.1;stroke-linecap:butt;stroke-linejoin:miter;stroke-miterlimit:4;stroke-dasharray:none;stroke-opacity:1" />
      </g>
      <path
         transform="matrix(2.183443,0,0,2.183443,-481.1658,-792.8041)"
         d="M 400.93689,412.57822 C 400.93689,412.20385 418.53157,407.13575 418.75161,406.83288 C 418.97166,406.53001 418.35466,388.23034 418.7107,388.11466 C 419.06675,387.99897 429.32385,403.16638 429.6799,403.28206 C 430.03594,403.39775 447.24929,397.15604 447.46934,397.45891 C 447.68939,397.76177 436.43395,412.20385 436.43395,412.57822 C 436.43395,412.95258 447.68938,427.39466 447.46934,427.69753 C 447.24929,428.0004 430.03594,421.75868 429.6799,421.87437 C 429.32385,421.99005 419.06674,437.15746 418.7107,437.04177 C 418.35466,436.92609 418.97166,418.62642 418.75161,418.32355 C 418.53157,418.02069 400.93689,412.95258 400.93689,412.57822 z "
         inkscape:randomized="0"
         inkscape:rounded="0.02"
         inkscape:flatsided="false"
         sodipodi:arg2="3.7699112"
         sodipodi:arg1="3.1415927"
         sodipodi:r2="9.7745523"
         sodipodi:r1="25.722507"
         sodipodi:cy="412.57822"
         sodipodi:cx="426.65939"
         sodipodi:sides="5"
         id="path3674"
         style="fill:red;fill-opacity:1;stroke:none;stroke-width:0.1;stroke-miterlimit:4;stroke-dasharray:none;stroke-opacity:1"
         sodipodi:type="star" />
    </g>
  </g>
</svg>
