<?xml version="1.0" encoding="UTF-8" standalone="no"?>
<svg
   xmlns:dc="http://purl.org/dc/elements/1.1/"
   xmlns:cc="http://creativecommons.org/ns#"
   xmlns:rdf="http://www.w3.org/1999/02/22-rdf-syntax-ns#"
   xmlns:svg="http://www.w3.org/2000/svg"
   xmlns="http://www.w3.org/2000/svg"
   xmlns:sodipodi="http://sodipodi.sourceforge.net/DTD/sodipodi-0.dtd"
   xmlns:inkscape="http://www.inkscape.org/namespaces/inkscape"
   id="Layer_1"
   data-name="Layer 1"
   viewBox="0 0 109.36 164.55"
   version="1.1"
   sodipodi:docname="iyi parti logosu.svg"
   inkscape:version="1.0.1 (3bc2e813f5, 2020-09-07)">
  <metadata
     id="metadata58">
    <rdf:RDF>
      <cc:Work
         rdf:about="">
        <dc:format>image/svg+xml</dc:format>
        <dc:type
           rdf:resource="http://purl.org/dc/dcmitype/StillImage" />
        <dc:title>logo_beyaz_110_165</dc:title>
      </cc:Work>
    </rdf:RDF>
  </metadata>
  <sodipodi:namedview
     pagecolor="#ffffff"
     bordercolor="#666666"
     borderopacity="1"
     objecttolerance="10"
     gridtolerance="10"
     guidetolerance="10"
     inkscape:pageopacity="0"
     inkscape:pageshadow="2"
     inkscape:window-width="1920"
     inkscape:window-height="1001"
     id="namedview56"
     showgrid="false"
     inkscape:zoom="10.088119"
     inkscape:cx="23.547127"
     inkscape:cy="43.141651"
     inkscape:window-x="-9"
     inkscape:window-y="-9"
     inkscape:window-maximized="1"
     inkscape:current-layer="Layer_1" />
  <defs
     id="defs4">
    <style
       id="style2">.cls-1{fill:#fff;}.cls-2{fill:#ffdb00;}</style>
  </defs>
  <title
     id="title6">logo_beyaz_110_165</title>
  <g
     id="_Group_"
     data-name="&lt;Group&gt;"
     style="fill:#56565a;fill-opacity:1">
    <g
       id="_Group_2"
       data-name="&lt;Group&gt;"
       style="fill:#56565a;fill-opacity:1">
      <path
         id="_Path_"
         data-name="&lt;Path&gt;"
         class="cls-1"
         d="M29.16,88.59a4.27,4.27,0,1,0,3,1.25A4.11,4.11,0,0,0,29.16,88.59Z"
         transform="translate(-0.38)"
         style="fill:#56565a;fill-opacity:1" />
    </g>
    <g
       id="_Group_3"
       data-name="&lt;Group&gt;"
       style="fill:#56565a;fill-opacity:1">
      <path
         id="_Path_2"
         data-name="&lt;Path&gt;"
         class="cls-1"
         d="M29.16,99.84a3.48,3.48,0,0,0-2.55,1.06,3.52,3.52,0,0,0-1.06,2.59v35.43a3.52,3.52,0,0,0,1.06,2.59,3.6,3.6,0,0,0,5.1,0,3.64,3.64,0,0,0,1.09-2.59V103.48a3.64,3.64,0,0,0-1.09-2.59A3.48,3.48,0,0,0,29.16,99.84Z"
         transform="translate(-0.38)"
         style="fill:#56565a;fill-opacity:1" />
    </g>
    <g
       id="_Group_4"
       data-name="&lt;Group&gt;"
       style="fill:#56565a;fill-opacity:1">
      <path
         id="_Path_3"
         data-name="&lt;Path&gt;"
         class="cls-1"
         d="M80.83,97.13a4.27,4.27,0,1,0-3-1.25A4.11,4.11,0,0,0,80.83,97.13Z"
         transform="translate(-0.38)"
         style="fill:#56565a;fill-opacity:1" />
    </g>
    <g
       id="_Group_5"
       data-name="&lt;Group&gt;"
       style="fill:#56565a;fill-opacity:1">
      <path
         id="_Path_4"
         data-name="&lt;Path&gt;"
         class="cls-1"
         d="M80.83,99.84a3.48,3.48,0,0,0-2.55,1.06,3.52,3.52,0,0,0-1.06,2.59v35.43a3.52,3.52,0,0,0,1.06,2.59,3.6,3.6,0,0,0,5.1,0,3.64,3.64,0,0,0,1.09-2.59V103.48a3.64,3.64,0,0,0-1.09-2.59A3.48,3.48,0,0,0,80.83,99.84Z"
         transform="translate(-0.38)"
         style="fill:#56565a;fill-opacity:1" />
    </g>
    <g
       id="_Group_6"
       data-name="&lt;Group&gt;"
       style="fill:#56565a;fill-opacity:1">
      <path
         id="_Path_5"
         data-name="&lt;Path&gt;"
         class="cls-1"
         d="M68.9,99.83a3.64,3.64,0,0,0-2.6,1.05L55.23,113,44.15,100.89a3.64,3.64,0,0,0-2.6-1.05,3.6,3.6,0,0,0-3.61,3.61A3.52,3.52,0,0,0,39,106L51.6,119.67v19.24a3.52,3.52,0,0,0,1.06,2.59,3.6,3.6,0,0,0,5.1,0,3.64,3.64,0,0,0,1.09-2.59V119.67L71.43,106a3.52,3.52,0,0,0,1.08-2.58A3.6,3.6,0,0,0,68.9,99.83Z"
         transform="translate(-0.38)"
         style="fill:#56565a;fill-opacity:1" />
    </g>
  </g>
  <g
     id="_Group_7"
     data-name="&lt;Group&gt;"
     style="fill:#8a8a8d;fill-opacity:1">
    <g
       id="_Group_8"
       data-name="&lt;Group&gt;"
       style="fill:#8a8a8d;fill-opacity:1">
      <path
         id="_Compound_Path_"
         data-name="&lt;Compound Path&gt;"
         class="cls-1"
         d="M43.14,152.78a0.66,0.66,0,0,0-.16-0.24,0.68,0.68,0,0,0-.46-0.17,0.65,0.65,0,0,0-.45.17,0.62,0.62,0,0,0-.17.24l-4.5,10.59a0.57,0.57,0,0,0,.13.67,0.65,0.65,0,0,0,.46.17,0.67,0.67,0,0,0,.46-0.17,0.68,0.68,0,0,0,.14-0.19l1.61-3.79h4.64l1.61,3.79a0.62,0.62,0,0,0,.15.19,0.65,0.65,0,0,0,.45.17A0.65,0.65,0,0,0,47.5,164a0.57,0.57,0,0,0,.13-0.67Zm-2.44,6.1,1.82-4.29,1.82,4.29H40.7Z"
         transform="translate(-0.38)"
         style="fill:#8a8a8d;fill-opacity:1" />
    </g>
    <g
       id="_Group_9"
       data-name="&lt;Group&gt;"
       style="fill:#8a8a8d;fill-opacity:1">
      <path
         id="_Compound_Path_2"
         data-name="&lt;Compound Path&gt;"
         class="cls-1"
         d="M59,159.16a3.84,3.84,0,0,0,1.14-.73,3.35,3.35,0,0,0,0-5,3.92,3.92,0,0,0-2.75-1H54.15a0.65,0.65,0,0,0-.46.17,0.55,0.55,0,0,0-.19.42v10.67a0.55,0.55,0,0,0,.19.42,0.69,0.69,0,0,0,.91,0,0.55,0.55,0,0,0,.19-0.42v-4.15h2.87l3,4.45a0.67,0.67,0,0,0,.57.3,0.65,0.65,0,0,0,.46-0.17,0.55,0.55,0,0,0,.19-0.42,0.53,0.53,0,0,0-.11-0.33Zm-1.61-.87H54.8v-4.74h2.59a2.62,2.62,0,0,1,1.83.69,2.24,2.24,0,0,1,0,3.36A2.61,2.61,0,0,1,57.38,158.29Z"
         transform="translate(-0.38)"
         style="fill:#8a8a8d;fill-opacity:1" />
    </g>
    <g
       id="_Group_10"
       data-name="&lt;Group&gt;"
       style="fill:#8a8a8d;fill-opacity:1">
      <path
         id="_Path_6"
         data-name="&lt;Path&gt;"
         class="cls-1"
         d="M76.13,152.36H67.72a0.65,0.65,0,0,0-.46.17,0.56,0.56,0,0,0,0,.84,0.65,0.65,0,0,0,.46.17h3.56v10.08a0.55,0.55,0,0,0,.19.42,0.69,0.69,0,0,0,.91,0,0.55,0.55,0,0,0,.19-0.42V153.55h3.56a0.65,0.65,0,0,0,.46-0.17,0.56,0.56,0,0,0,0-.84A0.65,0.65,0,0,0,76.13,152.36Z"
         transform="translate(-0.38)"
         style="fill:#8a8a8d;fill-opacity:1" />
    </g>
    <g
       id="_Group_11"
       data-name="&lt;Group&gt;"
       style="fill:#8a8a8d;fill-opacity:1">
      <path
         id="_Path_7"
         data-name="&lt;Path&gt;"
         class="cls-1"
         d="M83.88,152.36a0.65,0.65,0,0,0-.46.17,0.55,0.55,0,0,0-.19.42v10.67a0.55,0.55,0,0,0,.19.42,0.69,0.69,0,0,0,.91,0,0.55,0.55,0,0,0,.19-0.42V153a0.55,0.55,0,0,0-.19-0.42A0.65,0.65,0,0,0,83.88,152.36Z"
         transform="translate(-0.38)"
         style="fill:#8a8a8d;fill-opacity:1" />
    </g>
    <g
       id="_Group_12"
       data-name="&lt;Group&gt;"
       style="fill:#8a8a8d;fill-opacity:1">
      <path
         id="_Path_8"
         data-name="&lt;Path&gt;"
         class="cls-1"
         d="M84.57,149.95a1,1,0,0,0-1.37,0,0.84,0.84,0,0,0,0,1.26,1,1,0,0,0,1.37,0A0.84,0.84,0,0,0,84.57,149.95Z"
         transform="translate(-0.38)"
         style="fill:#8a8a8d;fill-opacity:1" />
    </g>
    <g
       id="_Group_13"
       data-name="&lt;Group&gt;"
       style="fill:#8a8a8d;fill-opacity:1">
      <path
         id="_Path_9"
         data-name="&lt;Path&gt;"
         class="cls-1"
         d="M31.76,153.49a4.24,4.24,0,0,0-3-1.13H26.2a0.65,0.65,0,0,0-.46.17,0.55,0.55,0,0,0-.19.42v10.67a0.55,0.55,0,0,0,.19.42,0.69,0.69,0,0,0,.91,0,0.55,0.55,0,0,0,.19-0.42V153.55h1.94a2.94,2.94,0,0,1,2.06.78,2.51,2.51,0,0,1,0,3.77,2.94,2.94,0,0,1-2.06.78H27.47v1.19h1.31a4.24,4.24,0,0,0,3-1.13A3.62,3.62,0,0,0,31.76,153.49Z"
         transform="translate(-0.38)"
         style="fill:#8a8a8d;fill-opacity:1" />
    </g>
  </g>
  <g
     id="_Group_14"
     data-name="&lt;Group&gt;">
    <g
       id="_Group_15"
       data-name="&lt;Group&gt;">
      <path
         id="_Path_10"
         data-name="&lt;Path&gt;"
         class="cls-2"
         d="M69.25,26.28a20.05,20.05,0,1,0,5.87,14.18A19.92,19.92,0,0,0,69.25,26.28Z"
         transform="translate(-0.38)" />
    </g>
    <g
       id="_Group_16"
       data-name="&lt;Group&gt;">
      <path
         id="_Path_11"
         data-name="&lt;Path&gt;"
         class="cls-2"
         d="M55.07,15.61a3.13,3.13,0,0,0,3.12-3.12V3.12a3.12,3.12,0,1,0-6.25,0v9.37A3.13,3.13,0,0,0,55.07,15.61Z"
         transform="translate(-0.38)" />
    </g>
    <g
       id="_Group_17"
       data-name="&lt;Group&gt;">
      <path
         id="_Path_12"
         data-name="&lt;Path&gt;"
         class="cls-2"
         d="M55.07,65.24a3.13,3.13,0,0,0-3.12,3.12v9.37a3.12,3.12,0,1,0,6.25,0V68.36A3.13,3.13,0,0,0,55.07,65.24Z"
         transform="translate(-0.38)" />
    </g>
    <g
       id="_Group_18"
       data-name="&lt;Group&gt;">
      <path
         id="_Path_13"
         data-name="&lt;Path&gt;"
         class="cls-2"
         d="M92.37,37.33H83a3.12,3.12,0,0,0,0,6.25h9.37A3.12,3.12,0,0,0,92.37,37.33Z"
         transform="translate(-0.38)" />
    </g>
    <g
       id="_Group_19"
       data-name="&lt;Group&gt;">
      <path
         id="_Path_14"
         data-name="&lt;Path&gt;"
         class="cls-2"
         d="M30.26,40.45a3.13,3.13,0,0,0-3.12-3.12H17.77a3.12,3.12,0,0,0,0,6.25h9.37A3.13,3.13,0,0,0,30.26,40.45Z"
         transform="translate(-0.38)" />
    </g>
    <g
       id="_Group_20"
       data-name="&lt;Group&gt;">
      <path
         id="_Path_15"
         data-name="&lt;Path&gt;"
         class="cls-2"
         d="M77.07,58a3.12,3.12,0,0,0-4.42,4.42L79.27,69a3.12,3.12,0,0,0,4.42-4.42Z"
         transform="translate(-0.38)" />
    </g>
    <g
       id="_Group_21"
       data-name="&lt;Group&gt;">
      <path
         id="_Path_16"
         data-name="&lt;Path&gt;"
         class="cls-2"
         d="M33.14,22.91a3.13,3.13,0,0,0,4.42,0h0a3.13,3.13,0,0,0,0-4.42l-6.62-6.62a3.12,3.12,0,0,0-4.42,4.42Z"
         transform="translate(-0.38)" />
    </g>
    <g
       id="_Group_22"
       data-name="&lt;Group&gt;">
      <path
         id="_Path_17"
         data-name="&lt;Path&gt;"
         class="cls-2"
         d="M37.51,58.1a3.13,3.13,0,0,0-4.42,0l-6.62,6.62a3.12,3.12,0,1,0,4.42,4.42l6.62-6.62a3.13,3.13,0,0,0,0-4.42h0Z"
         transform="translate(-0.38)" />
    </g>
    <g
       id="_Group_23"
       data-name="&lt;Group&gt;">
      <path
         id="_Path_18"
         data-name="&lt;Path&gt;"
         class="cls-2"
         d="M77,23l6.62-6.62a3.13,3.13,0,0,0,0-4.42h0a3.13,3.13,0,0,0-4.42,0L72.6,18.6A3.12,3.12,0,1,0,77,23Z"
         transform="translate(-0.38)" />
    </g>
  </g>
  <g
     id="_Group_24"
     data-name="&lt;Group&gt;"
     style="fill:#56565a;fill-opacity:1">
    <polygon
       id="_Path_19"
       data-name="&lt;Path&gt;"
       class="cls-1"
       points="9.06 164.49 0 164.49 0 40.18 9.06 40.18 9.06 40.73 0.55 40.73 0.55 163.94 9.06 163.94 9.06 164.49"
       style="fill:#56565a;fill-opacity:1" />
  </g>
  <g
     id="_Group_25"
     data-name="&lt;Group&gt;"
     style="fill:#56565a;fill-opacity:1">
    <polygon
       id="_Path_20"
       data-name="&lt;Path&gt;"
       class="cls-1"
       points="109.36 164.55 100.3 164.55 100.3 164 108.81 164 108.81 40.79 100.3 40.79 100.3 40.24 109.36 40.24 109.36 164.55"
       style="fill:#56565a;fill-opacity:1" />
  </g>
</svg>
